<?xml version="1.0" encoding="utf-8"?>
<!-- Generator: Adobe Illustrator 16.0.4, SVG Export Plug-In . SVG Version: 6.00 Build 0)  -->
<!DOCTYPE svg PUBLIC "-//W3C//DTD SVG 1.1//EN" "http://www.w3.org/Graphics/SVG/1.1/DTD/svg11.dtd">
<svg version="1.1"
	 id="Layer_1" sodipodi:docname="test.svg" inkscape:version="0.48.5 r10040" xmlns:rdf="http://www.w3.org/1999/02/22-rdf-syntax-ns#" xmlns:svg="http://www.w3.org/2000/svg" xmlns:sodipodi="http://sodipodi.sourceforge.net/DTD/sodipodi-0.dtd" xmlns:cc="http://creativecommons.org/ns#" xmlns:dc="http://purl.org/dc/elements/1.1/" xmlns:inkscape="http://www.inkscape.org/namespaces/inkscape"
	 xmlns="http://www.w3.org/2000/svg" xmlns:xlink="http://www.w3.org/1999/xlink" x="0px" y="0px" width="338.753px" height="477px"
	 viewBox="5 0 338.753 477" enable-background="new 5 0 338.753 477" xml:space="preserve">
<g>
	
		<sodipodi:namedview  inkscape:current-layer="Layer_1" inkscape:window-y="27" inkscape:guide-bbox="true" inkscape:pageshadow="2" inkscape:window-width="1920" id="namedview593" pagecolor="#ffffff" showguides="true" showgrid="true" inkscape:zoom="4" inkscape:cx="229.52308" guidetolerance="10" gridtolerance="10" objecttolerance="10" borderopacity="1" inkscape:cy="178.29005" bordercolor="#666666" inkscape:pageopacity="0" inkscape:snap-page="true" inkscape:window-x="0" inkscape:snap-global="true" inkscape:window-maximized="1" inkscape:window-height="984">
		<inkscape:grid  id="grid3652" type="xygrid"></inkscape:grid>
		<sodipodi:guide  orientation="1,0" position="245.25173,57" id="guide3654"></sodipodi:guide>
		<sodipodi:guide  orientation="0,1" position="250,59" id="guide3656"></sodipodi:guide>
	</sodipodi:namedview>
	<g>
		<g id="g3" transform="matrix(0.704,0,0,0.704,82.031837,57.501661)">
			<g id="g7">
				<path id="path9" inkscape:connector-curvature="0" d="M307.782-51.027c-5.449,0-9.852-3.697-9.852-8.269v-14.002
					c0-4.559-4.425-8.259-9.885-8.259c-5.457,0-9.866,3.399-9.866,7.969v14.293c0,4.565-4.419,8.269-9.874,8.269
					c-5.452,0-9.865-3.698-9.865-8.269v-14.002c0-4.554-4.422-8.259-9.885-8.259c-5.446,0-9.868,3.41-9.868,7.969v14.293
					c0,4.565-4.428,8.258-9.874,8.258c-5.443,0-9.871-3.688-9.871-8.258v-14.002c0-4.559-4.42-8.259-9.879-8.259
					c-5.452,0-9.871,3.399-9.871,7.969v14.293c0,4.565-4.417,8.27-9.871,8.27c-5.452,0-9.874-3.698-9.874-8.27v-14.002
					c0-4.554-4.425-8.258-9.865-8.258H90.444c-5.46,0-9.877,3.699-9.877,8.258v14.002c0,4.565-4.408,8.27-9.867,8.27
					c-5.453,0-9.87-3.698-9.87-8.27v-14.002c0-4.554-4.428-8.258-9.879-8.258c-5.46,0-9.885,3.699-9.885,8.258l-0.153,14.002
					c0,4.565-4.425,8.27-9.868,8.27c-5.457,0-9.871-3.698-9.871-8.27v-14.002c0-4.554-4.418-8.258-9.878-8.258
					s-9.871,3.699-9.871,8.258v14.002c0,4.565-4.421,8.27-9.878,8.27c-5.446,0-9.871-3.698-9.871-8.27v-14.002
					c0-4.554-4.417-8.258-9.871-8.258c-5.457,0-9.877,3.699-9.877,8.258l-0.155,14.002c0,4.565-4.417,8.27-9.863,8.27
					c-5.457,0-9.877-3.698-9.877-8.27v-14.002c0-4.554-4.419-8.258-9.874-8.258c-5.454,0-9.874,3.699-9.874,8.258v14.002
					c0,4.565-4.422,8.27-9.871,8.27l-0.29,616.26c5.457,0,9.871,3.705,9.871,8.258v14.002c0,4.568,4.426,8.259,9.875,8.259
					c5.452,0,9.874-3.698,9.874-8.259v-14.002c0-4.564,4.417-8.258,9.868-8.258c5.449,0,9.868,3.705,9.868,8.258l0.164,14.002
					c0,4.568,4.406,8.259,9.865,8.259c5.465,0,9.882-3.698,9.882-8.259v-14.002c0-4.564,4.418-8.258,9.864-8.258
					c5.456,0,9.878,3.705,9.878,8.258v14.002c0,4.568,4.417,8.259,9.87,8.259c5.458,0,9.875-3.698,9.875-8.259v-14.002
					c0-4.564,4.421-8.258,9.874-8.258c5.446,0,9.871,3.705,9.871,8.258l0.154,14.002c0,4.568,4.418,8.259,9.878,8.259
					c5.453,0,9.878-3.698,9.878-8.259v-14.002c0-4.564,4.414-8.258,9.87-8.258c5.449,0,9.872,3.705,9.872,8.258v14.002
					c0,4.568,4.407,8.259,9.864,8.259h79.135c5.454,0,9.871-3.698,9.871-8.259v-14.002c0-4.564,4.422-8.258,9.874-8.258
					c5.454,0,9.879,3.705,9.879,8.258v14.293c0,4.569,4.408,7.966,9.865,7.966c5.463,0,9.888-3.698,9.888-8.258v-14.002
					c0-4.564,4.417-8.258,9.865-8.258c5.452,0,9.877,3.705,9.877,8.258v14.293c0,4.569,4.42,7.965,9.877,7.965
					c5.452,0,9.877-3.697,9.877-8.258v-14.002c0-4.565,4.42-8.258,9.871-8.258s9.871,3.704,9.871,8.258v14.293
					c0,4.569,4.408,7.966,9.868,7.966c5.468,0,9.885-3.698,9.885-8.259v-14.002c0-4.564,4.425-8.259,9.871-8.259
					c5.452,0,9.865,3.707,9.865,8.259v14.002c0,4.568,4.425,8.259,9.871,8.259c5.463,0,9.888-3.698,9.888-8.259v-14.002
					c0-4.564,4.406-8.259,9.868-8.259l0.25-616.26c-5.454,0-9.871-3.701-9.871-8.263v-14.003c0-4.562-4.419-8.256-9.882-8.256
					c-5.454,0-9.871,3.704-9.871,8.256v14.003C317.639-54.721,313.236-51.027,307.782-51.027z"/>
			</g>
		</g>
		<rect id="rect4274" x="4.792" y="168.248" fill="#333333" width="45.703" height="136.59"/>
		
			<rect id="rect11" x="159.397" y="5.466" fill="#858688" stroke="#858688" stroke-width="1.3509" stroke-linejoin="round" stroke-miterlimit="10" width="26.427" height="10.423"/>
		
			<rect id="rect13" x="237.455" y="317.467" fill="#858688" stroke="#858688" stroke-width="1.4737" stroke-linejoin="round" stroke-miterlimit="10" width="89.314" height="70.929"/>
		<g id="g37" transform="matrix(0.704,0,0,0.704,82.031837,57.501661)">
			<rect id="rect39" x="138.919" y="493.574" fill="#E7AB22" width="9.523" height="12.695"/>
			<rect id="rect41" x="108.291" y="493.574" fill="#E7AB22" width="9.519" height="12.695"/>
		</g>
		
			<path id="path43" inkscape:connector-curvature="0" fill="#F9F5D2" stroke="#858688" stroke-width="1.4737" stroke-linejoin="round" stroke-miterlimit="10" d="
			M150.679,416.041v51.472v4.723c0,2.271,3.479,3.777,4.931,3.777h12.954c1.009-0.869,2.322-1.392,3.771-1.392
			c1.44,0,2.752,0.521,3.771,1.392h12.89c1.442,0,4.934-1.509,4.934-3.777l0.214-5.065l-0.21-51.133c0-1.44-1.182-2.621-2.633-2.621
			h-37.989C151.874,413.416,150.679,414.594,150.679,416.041L150.679,416.041z"/>
		
			<rect id="rect45" x="190.644" y="263.447" transform="matrix(-0.7071 0.7071 -0.7071 -0.7071 558.7833 334.4222)" fill="#3D3D3D" width="38.976" height="38.978"/>
		<path id="path47" inkscape:connector-curvature="0" fill="#E7AB22" d="M141.407,254.408l0.521,0.524l-2.864,2.86l-0.522-0.521
			L141.407,254.408z M142.55,255.549l0.521,0.52l-2.866,2.87l-0.521-0.521L142.55,255.549z M143.688,256.69l0.521,0.519
			l-2.863,2.871l-0.523-0.52L143.688,256.69L143.688,256.69z M144.826,257.826l0.521,0.521l-2.87,2.869l-0.521-0.519
			L144.826,257.826z M145.966,258.967l0.52,0.52l-2.87,2.871l-0.521-0.52L145.966,258.967L145.966,258.967z M147.103,260.104
			l0.521,0.522l-2.875,2.866l-0.52-0.52L147.103,260.104z M148.243,261.246l0.522,0.52l-2.863,2.869l-0.521-0.52L148.243,261.246z
			 M149.378,262.385l0.523,0.521l-2.861,2.864l-0.521-0.522L149.378,262.385L149.378,262.385z M150.526,263.526l0.521,0.521
			l-2.867,2.865l-0.521-0.52L150.526,263.526z M151.664,264.668l0.52,0.521l-2.861,2.869l-0.521-0.524L151.664,264.668z
			 M152.802,265.806l0.527,0.522l-2.877,2.869l-0.521-0.521L152.802,265.806z M153.946,266.946l0.522,0.521l-2.871,2.875
			l-0.521-0.522L153.946,266.946z M155.087,268.086l0.521,0.521l-2.868,2.87l-0.521-0.521L155.087,268.086z M156.224,269.229
			l0.521,0.521l-2.871,2.869l-0.521-0.522L156.224,269.229L156.224,269.229z M157.366,270.362l0.521,0.521l-2.869,2.869
			l-0.521-0.521L157.366,270.362z M158.503,271.508l0.523,0.522l-2.869,2.866l-0.52-0.52L158.503,271.508z M159.646,272.645
			l0.52,0.523l-2.859,2.869l-0.522-0.519L159.646,272.645z M160.783,273.784l0.521,0.523l-2.865,2.866l-0.521-0.52L160.783,273.784z
			 M161.921,274.92l0.521,0.524l-2.871,2.87l-0.521-0.523L161.921,274.92z M163.061,276.058l0.519,0.524l-2.865,2.869l-0.521-0.521
			L163.061,276.058z M110.026,285.78l0.524,0.523l-2.869,2.864l-0.521-0.521L110.026,285.78z M111.167,286.922l0.522,0.522
			l-2.87,2.87l-0.521-0.521L111.167,286.922z M112.308,288.065l0.521,0.521l-2.867,2.873l-0.52-0.521L112.308,288.065z
			 M113.453,289.203l0.521,0.523l-2.866,2.871l-0.521-0.521L113.453,289.203z M114.593,290.344l0.518,0.518l-2.861,2.872
			l-0.521-0.522L114.593,290.344z M115.733,291.484l0.521,0.523l-2.865,2.861l-0.521-0.521L115.733,291.484z M116.869,292.625
			l0.523,0.521l-2.867,2.869l-0.523-0.523L116.869,292.625L116.869,292.625z M118.007,293.762l0.521,0.522l-2.866,2.866l-0.521-0.52
			L118.007,293.762z M119.148,294.902l0.521,0.52l-2.867,2.867l-0.521-0.52L119.148,294.902z M120.292,296.039l0.522,0.523
			l-2.871,2.87l-0.521-0.522L120.292,296.039z M121.431,297.18l0.521,0.52l-2.87,2.87l-0.521-0.519L121.431,297.18z M122.57,298.322
			l0.525,0.521l-2.867,2.871l-0.523-0.524L122.57,298.322z M123.706,299.463l0.523,0.521l-2.871,2.867l-0.52-0.52L123.706,299.463
			L123.706,299.463z M124.853,300.603l0.521,0.524l-2.867,2.869l-0.521-0.521L124.853,300.603z M125.984,301.738l0.523,0.524
			l-2.871,2.864l-0.521-0.522L125.984,301.738L125.984,301.738z M127.128,302.883l0.521,0.521l-2.869,2.869l-0.523-0.521
			L127.128,302.883z M128.265,304.021l0.52,0.521l-2.857,2.867l-0.522-0.521L128.265,304.021L128.265,304.021z M129.403,305.16
			l0.522,0.521l-2.867,2.869l-0.523-0.523L129.403,305.16z M130.55,306.299l0.518,0.521l-2.861,2.871l-0.521-0.523L130.55,306.299z
			 M131.686,307.438l0.521,0.522l-2.873,2.867l-0.52-0.521L131.686,307.438z M163.292,288.58l-0.521,0.521l-2.868-2.87l0.523-0.52
			L163.292,288.58z M162.153,289.719l-0.524,0.523l-2.863-2.867l0.521-0.52L162.153,289.719z M161.013,290.861l-0.522,0.518
			l-2.86-2.858l0.521-0.521L161.013,290.861L161.013,290.861z M159.871,292l-0.521,0.52l-2.865-2.863l0.523-0.521L159.871,292
			L159.871,292z M158.733,293.146l-0.524,0.519l-2.861-2.865l0.521-0.524L158.733,293.146L158.733,293.146z M157.587,294.281
			l-0.518,0.523l-2.87-2.87l0.522-0.521L157.587,294.281z M156.45,295.418l-0.519,0.522l-2.868-2.87l0.521-0.523L156.45,295.418z
			 M155.313,296.559l-0.524,0.52l-2.859-2.867l0.521-0.522L155.313,296.559z M154.169,297.695l-0.521,0.523l-2.862-2.875l0.521-0.52
			L154.169,297.695z M153.027,298.836l-0.52,0.523l-2.867-2.863l0.521-0.521L153.027,298.836L153.027,298.836z M151.89,299.977
			l-0.52,0.523l-2.871-2.871l0.521-0.521L151.89,299.977L151.89,299.977z M150.757,301.119l-0.522,0.521l-2.864-2.864l0.521-0.524
			L150.757,301.119z M149.613,302.256l-0.52,0.521l-2.866-2.866l0.522-0.518L149.613,302.256z M148.476,303.398l-0.521,0.521
			l-2.865-2.871l0.521-0.522L148.476,303.398z M147.335,304.537l-0.521,0.521l-2.861-2.863l0.523-0.521L147.335,304.537z
			 M146.195,305.676l-0.52,0.522l-2.871-2.868l0.521-0.522L146.195,305.676z M145.056,306.818l-0.522,0.521l-2.864-2.858
			l0.521-0.522L145.056,306.818L145.056,306.818z M143.915,307.953l-0.523,0.523l-2.865-2.861l0.523-0.523L143.915,307.953z
			 M142.774,309.099l-0.521,0.519l-2.865-2.865l0.521-0.523L142.774,309.099z M141.638,310.238l-0.523,0.52l-2.869-2.861
			l0.521-0.523L141.638,310.238L141.638,310.238z M132.06,257.351l-0.521,0.522l-2.867-2.865l0.521-0.522L132.06,257.351
			L132.06,257.351z M130.921,258.491l-0.521,0.521l-2.863-2.868l0.521-0.518L130.921,258.491z M129.782,259.629l-0.521,0.521
			l-2.867-2.863l0.521-0.521L129.782,259.629z M128.642,260.769l-0.521,0.522l-2.865-2.859l0.521-0.523L128.642,260.769z
			 M127.499,261.912l-0.52,0.52l-2.868-2.866l0.521-0.521L127.499,261.912z M126.364,263.053l-0.522,0.52l-2.867-2.863l0.521-0.521
			L126.364,263.053L126.364,263.053z M125.22,264.192l-0.522,0.521l-2.864-2.867l0.523-0.521L125.22,264.192z M124.081,265.325
			l-0.521,0.521l-2.869-2.871l0.521-0.521L124.081,265.325z M122.939,266.467l-0.523,0.519l-2.861-2.866l0.521-0.522
			L122.939,266.467z M121.796,267.606l-0.52,0.521l-2.871-2.864l0.523-0.523L121.796,267.606L121.796,267.606z M120.665,268.743
			l-0.52,0.523l-2.872-2.862l0.522-0.523L120.665,268.743z M119.525,269.888l-0.521,0.521l-2.863-2.865l0.521-0.521L119.525,269.888
			z M118.388,271.029l-0.523,0.521l-2.861-2.867l0.521-0.521L118.388,271.029L118.388,271.029z M117.247,272.168l-0.523,0.521
			l-2.864-2.868l0.519-0.522L117.247,272.168z M116.107,273.309l-0.523,0.521l-2.863-2.867l0.521-0.521L116.107,273.309z
			 M114.962,274.448l-0.521,0.521l-2.863-2.865l0.521-0.521L114.962,274.448z M113.825,275.588l-0.521,0.521l-2.864-2.869
			l0.521-0.519L113.825,275.588z M112.686,276.727l-0.521,0.521l-2.869-2.857l0.521-0.523L112.686,276.727L112.686,276.727z
			 M111.544,277.868l-0.521,0.519l-2.868-2.868l0.521-0.519L111.544,277.868z M110.404,279.006l-0.52,0.522l-2.869-2.87l0.521-0.52
			L110.404,279.006z M163.664,282.596l-28.488,28.496L106.683,282.6l28.492-28.489L163.664,282.596z"/>
		
			<line id="line49" fill="none" stroke="#BBBDBF" stroke-width="1.0444" stroke-linejoin="round" stroke-miterlimit="10" x1="172.052" y1="472.287" x2="172.052" y2="445.889"/>
		
			<ellipse id="ellipse51" sodipodi:cy="155.386" sodipodi:rx="1.919" sodipodi:ry="5.7010002" sodipodi:cx="47.450001" cx="183.251" cy="472.965" rx="8.402" ry="2.828">
		</ellipse>
		
			<ellipse id="ellipse53" sodipodi:cy="140.563" sodipodi:rx="1.919" sodipodi:ry="5.7010002" sodipodi:cx="47.450001" cx="161.412" cy="472.965" rx="8.402" ry="2.828">
		</ellipse>
		<rect id="rect55" x="163.927" y="365.659" fill="#E7AB22" width="17.502" height="7.834"/>
		<rect id="rect57" x="166.493" y="365.688" fill="#83C341" width="12.371" height="7.83"/>
		
			<rect id="rect59" x="203.167" y="418.771" fill="#858688" stroke="#858688" stroke-width="1.4737" stroke-linejoin="round" stroke-miterlimit="10" width="35.465" height="32.579"/>
		
			<path id="path61" inkscape:connector-curvature="0" fill="#F9F5D2" stroke="#858688" stroke-width="1.4737" stroke-linejoin="round" stroke-miterlimit="10" d="
			M229.115,435.064c0,4.539-3.678,8.211-8.211,8.211c-4.539,0-8.219-3.672-8.219-8.211c0-4.538,3.68-8.223,8.219-8.223
			C225.437,426.842,229.115,430.525,229.115,435.064"/>
		<g id="g63" transform="matrix(0.704,0,0,0.704,82.031837,57.501661)">
			
				<rect id="rect65" x="36.206" y="512.904" fill="#858688" stroke="#858688" stroke-width="2.0934" stroke-linejoin="round" stroke-miterlimit="10" width="50.376" height="46.272"/>
			
				<path id="path67" inkscape:connector-curvature="0" fill="#6D6E70" stroke="#6D6E70" stroke-width="1.4836" stroke-linejoin="round" stroke-miterlimit="10" d="
				M73.06,536.035c0,6.45-5.213,11.666-11.662,11.666c-6.446,0-11.67-5.224-11.67-11.666c0-6.442,5.227-11.669,11.67-11.669
				C67.833,524.365,73.06,529.593,73.06,536.035"/>
		</g>
		
			<path id="path69" inkscape:connector-curvature="0" fill="#F9F5D2" stroke="#858688" stroke-width="1.4737" stroke-linejoin="round" stroke-miterlimit="10" d="
			M133.474,434.873c0,4.537-3.682,8.213-8.221,8.213c-4.535,0-8.213-3.676-8.213-8.213s3.678-8.221,8.213-8.221
			C129.794,426.654,133.474,430.336,133.474,434.873"/>
		
			<rect id="rect71" x="115.464" y="263.39" transform="matrix(-0.7071 0.7071 -0.7071 -0.7071 430.4069 387.4711)" fill="#3D3D3D" stroke="#858688" stroke-width="1.4737" stroke-linejoin="round" stroke-miterlimit="10" width="38.979" height="38.976"/>
		<g id="g73" transform="matrix(0.704,0,0,0.704,82.031837,57.501661)">
			<rect id="rect75" x="142.582" y="371.401" fill="#E7AB22" width="7.69" height="3.233"/>
			<rect id="rect77" x="142.582" y="381.376" fill="#E7AB22" width="7.69" height="3.236"/>
			<rect id="rect79" x="142.582" y="391.35" fill="#E7AB22" width="7.69" height="3.238"/>
			<rect id="rect81" x="142.582" y="401.322" fill="#E7AB22" width="7.69" height="3.232"/>
			<rect id="rect83" x="104.237" y="371.401" fill="#E7AB22" width="7.683" height="3.233"/>
			<rect id="rect85" x="104.237" y="381.376" fill="#E7AB22" width="7.683" height="3.236"/>
			<rect id="rect87" x="104.237" y="391.35" fill="#E7AB22" width="7.683" height="3.238"/>
			<rect id="rect89" x="104.237" y="401.322" fill="#E7AB22" width="7.683" height="3.232"/>
		</g>
		
			<rect id="rect91" x="160.655" y="316.858" fill="#858688" stroke="#858688" stroke-width="1.4737" stroke-linejoin="round" stroke-miterlimit="10" width="21.873" height="27.375"/>
		<path id="path93" inkscape:connector-curvature="0" fill="#FFFFFF" d="M171.919,320.987c-1.603,0-2.896,1.265-2.896,2.824v9.552
			c-0.915,0.79-1.451,1.936-1.451,3.137c0,2.325,1.955,4.229,4.35,4.229c2.4,0,4.354-1.896,4.354-4.229
			c0-1.195-0.546-2.347-1.451-3.137v-9.552C174.823,322.258,173.524,320.987,171.919,320.987 M171.919,322.402
			c0.799,0,1.447,0.631,1.447,1.406v10.259c0.862,0.483,1.447,1.386,1.447,2.429c0,1.562-1.294,2.821-2.905,2.821
			c-1.604,0-2.897-1.264-2.897-2.821c0-1.043,0.584-1.941,1.439-2.429V323.81C170.468,323.032,171.119,322.402,171.919,322.402"/>
		<path id="path95" inkscape:connector-curvature="0" fill="#E6E7E8" d="M174.819,333.359v-9.551c0-1.557-1.295-2.826-2.901-2.826
			c-1.6,0-2.896,1.264-2.896,2.826v9.551c-0.913,0.789-1.449,1.934-1.449,3.137c0,2.327,1.95,4.231,4.349,4.231
			c2.397,0,4.354-1.896,4.354-4.231C176.272,335.293,175.728,334.148,174.819,333.359L174.819,333.359z M171.919,339.317
			c-1.604,0-2.896-1.26-2.896-2.821c0-1.043,0.581-1.941,1.443-2.425v-1.774h0.979v-0.635h-0.979v-1.263h0.979v-0.634h-0.979v-1.26
			h0.979v-0.625h-0.979v-1.188h0.979v-0.622h-0.979v-1.22h0.979v-0.622h-0.979v-0.431c0-0.779,0.647-1.408,1.442-1.408
			c0.796,0,1.451,0.628,1.451,1.408v10.257c0.86,0.483,1.44,1.385,1.44,2.428C174.819,338.062,173.524,339.317,171.919,339.317
			L171.919,339.317z"/>
		
			<rect id="rect97" x="278.027" y="407.486" fill="#858688" stroke="#858688" stroke-width="1.4737" stroke-linejoin="round" stroke-miterlimit="10" width="48.938" height="38.159"/>
		<g id="g99" transform="matrix(0.704,0,0,0.704,82.031837,57.501661)">
			
				<polyline id="polyline101" fill="#858688" stroke="#F9F5D2" stroke-width="1.4836" stroke-linejoin="round" stroke-miterlimit="10" points="
				304.408,522.37 304.339,530.612 347.549,536.483 			"/>
			
				<polyline id="polyline103" fill="#858688" stroke="#F9F5D2" stroke-width="1.4836" stroke-linejoin="round" stroke-miterlimit="10" points="
				304.408,529.148 304.339,517.85 347.549,512.005 			"/>
		</g>
		
			<rect id="rect105" x="164.442" y="230.418" fill="#6D6E70" stroke="#6D6E70" stroke-width="0.7519" stroke-linejoin="round" stroke-miterlimit="10" width="16.175" height="16.166"/>
		
			<rect id="rect107" x="72.073" y="60.52" fill="#767878" stroke="#767878" stroke-width="1.4737" stroke-linejoin="round" stroke-miterlimit="10" width="204.71" height="150.268"/>
		<g id="g109" transform="matrix(0.704,0,0,0.704,82.031837,57.501661)">
			<polygon id="polygon111" fill="#F9F5D2" points="50.524,90.14 50.524,131.795 52.441,133.717 72.311,133.717 92.181,133.717 
				94.101,131.795 94.101,90.14 90.25,90.14 90.25,129.869 74.231,129.869 74.231,111.928 70.383,111.928 70.383,129.869 
				54.364,129.869 54.364,90.14 			"/>
			<polygon id="polygon113" fill="#F9F5D2" points="107.401,113.85 125.342,113.85 125.342,110.005 107.401,110.005 107.401,93.981 
				145.207,93.981 145.207,90.14 105.473,90.14 103.558,92.06 103.558,111.928 103.558,131.789 105.473,133.717 145.207,133.717 
				145.207,129.869 107.401,129.869 			"/>
			<rect id="rect115" x="154.395" y="90.146" fill="#F9F5D2" width="3.845" height="43.571"/>
			<path id="path117" inkscape:connector-curvature="0" fill="#F9F5D2" d="M207.512,129.869h-35.886V93.98h35.886V129.869
				L207.512,129.869z M209.441,90.14h-39.737l-1.92,1.925v39.73l1.92,1.928h39.737l1.911-1.928v-39.73L209.441,90.14z"/>
		</g>
		
			<rect id="rect119" x="70.134" y="29.356" fill="#858688" stroke="#858688" stroke-width="1.4737" stroke-linejoin="round" stroke-miterlimit="10" width="10.826" height="6.726"/>
		<rect id="rect121" x="71.724" y="29.377" fill="#FFFFFF" width="7.646" height="6.718"/>
		
			<rect id="rect123" x="266.234" y="29.097" fill="#858688" stroke="#858688" stroke-width="1.4737" stroke-linejoin="round" stroke-miterlimit="10" width="10.828" height="6.725"/>
		<rect id="rect125" x="267.826" y="29.115" fill="#FFFFFF" width="7.635" height="6.718"/>
		<rect id="rect127" x="162.692" y="4.956" fill="#FFFFFF" width="19.897" height="11.439"/>
		
			<rect id="rect129" x="162.692" y="4.956" fill="none" stroke="#454548" stroke-width="0.1223" stroke-miterlimit="10" width="19.897" height="11.439"/>
		<rect id="rect131" x="176.753" y="6.331" fill="#454548" width="3.854" height="3.854"/>
		<g id="g207" transform="matrix(0.704,0,0,0.704,82.031837,57.501661)">
			
				<polyline id="polyline209" fill="#858688" stroke="#F9F5D2" stroke-width="1.4836" stroke-linejoin="round" stroke-miterlimit="10" points="
				294.687,431.977 339.77,437.224 339.77,446.667 295.739,452.437 			"/>
			
				<polyline id="polyline211" fill="#858688" stroke="#F9F5D2" stroke-width="1.4836" stroke-linejoin="round" stroke-miterlimit="10" points="
				294.687,386.852 339.77,392.096 339.77,401.542 295.739,407.319 			"/>
		</g>
		
			<path id="path219" inkscape:connector-curvature="0" fill="#858688" stroke="#858688" stroke-width="1.4737" stroke-linejoin="round" stroke-miterlimit="10" d="
			M28.819,376.36h56.677v73.498H28.819v-2.226h-8.591v-6.049c0,0,8.686-14.483,8.917-25.695c0.312-15.946-8.917-30.946-8.917-30.946
			v-7.005l8.591,0.316V376.36L28.819,376.36z"/>
		<g id="g221" transform="matrix(0.704,0,0,0.704,82.031837,57.501661)">
			<g id="g223">
				<g id="g225">
					<path id="path227" inkscape:connector-curvature="0" fill="#FFFFFF" d="M42.618,474.99l3.572,13.497h-2.834l-0.627-2.849h-3.59
						l-0.624,2.849h-2.835l3.576-13.497H42.618z M42.255,483.406l-1.3-6.069h-0.04l-1.307,6.069H42.255z"/>
					<path id="path229" inkscape:connector-curvature="0" fill="#FFFFFF" d="M51.9,474.99c0.691,0,1.272,0.118,1.748,0.347
						c0.474,0.233,0.846,0.541,1.14,0.918c0.289,0.376,0.498,0.813,0.627,1.293c0.128,0.49,0.187,0.983,0.187,1.487
						c0,0.694-0.107,1.296-0.312,1.812c-0.204,0.517-0.491,0.943-0.867,1.262c-0.366,0.33-0.824,0.58-1.348,0.741
						c-0.534,0.169-1.121,0.253-1.766,0.253h-1.454v5.382h-2.723v-13.498H51.9V474.99L51.9,474.99z M51.067,481.102
						c0.544,0,0.982-0.166,1.316-0.488c0.327-0.323,0.499-0.839,0.499-1.531c0-0.682-0.143-1.198-0.436-1.551
						c-0.291-0.354-0.782-0.53-1.459-0.53h-1.132v4.109L51.067,481.102L51.067,481.102z"/>
				</g>
				<g id="g231">
					<path id="path233" inkscape:connector-curvature="0" fill="#FFFFFF" d="M40.725,493.898l1.928,9.534h0.039l1.948-9.534h4.031
						v13.5h-2.494v-10.777h-0.044l-2.397,10.777h-2.121l-2.397-10.777h-0.036v10.777h-2.49v-13.5H40.725z"/>
					<path id="path235" inkscape:connector-curvature="0" fill="#FFFFFF" d="M50.474,497.823c0.086-0.864,0.297-1.606,0.619-2.222
						c0.316-0.621,0.785-1.101,1.387-1.445c0.61-0.347,1.419-0.522,2.436-0.522c1.021,0,1.839,0.175,2.441,0.522
						c0.605,0.344,1.068,0.824,1.387,1.445c0.325,0.616,0.53,1.35,0.631,2.222c0.09,0.86,0.14,1.806,0.14,2.827
						c0,1.032-0.047,1.977-0.14,2.833c-0.097,0.857-0.307,1.598-0.631,2.214c-0.319,0.621-0.782,1.096-1.387,1.423
						c-0.608,0.325-1.418,0.488-2.441,0.488c-1.013,0-1.826-0.167-2.436-0.488c-0.605-0.327-1.063-0.802-1.387-1.423
						c-0.325-0.616-0.533-1.35-0.619-2.214c-0.094-0.856-0.144-1.801-0.144-2.833C50.325,499.629,50.379,498.683,50.474,497.823z
						 M53.118,502.961c0.044,0.637,0.133,1.154,0.266,1.551c0.128,0.394,0.316,0.682,0.563,0.871
						c0.244,0.18,0.566,0.275,0.978,0.275c0.398,0,0.73-0.089,0.967-0.275c0.251-0.183,0.438-0.48,0.577-0.871
						c0.122-0.397,0.215-0.913,0.261-1.551c0.047-0.634,0.065-1.407,0.065-2.318c0-0.91-0.018-1.673-0.065-2.304
						c-0.046-0.63-0.126-1.146-0.261-1.545c-0.128-0.397-0.323-0.702-0.577-0.885c-0.241-0.187-0.555-0.272-0.967-0.272
						c-0.401,0-0.734,0.089-0.978,0.272c-0.247,0.183-0.433,0.483-0.563,0.885c-0.133,0.398-0.222,0.916-0.266,1.545
						c-0.044,0.63-0.069,1.401-0.069,2.304C53.052,501.554,53.071,502.327,53.118,502.961z"/>
					<path id="path237" inkscape:connector-curvature="0" fill="#FFFFFF" d="M65.717,493.898c0.946,0,1.703,0.157,2.289,0.465
						c0.578,0.308,1.029,0.749,1.351,1.326c0.322,0.569,0.538,1.269,0.653,2.07c0.112,0.807,0.171,1.703,0.171,2.702
						c0,1.185-0.075,2.219-0.218,3.096c-0.14,0.879-0.395,1.598-0.742,2.158c-0.344,0.574-0.832,0.996-1.423,1.271
						c-0.591,0.275-1.34,0.412-2.253,0.412h-4.289v-13.5H65.717z M65.192,505.394c0.48,0,0.86-0.08,1.157-0.247
						c0.291-0.167,0.522-0.437,0.691-0.813c0.169-0.377,0.283-0.878,0.336-1.494c0.061-0.616,0.089-1.387,0.089-2.304
						c0-0.767-0.022-1.44-0.072-2.025c-0.051-0.577-0.155-1.057-0.311-1.441c-0.155-0.383-0.394-0.673-0.699-0.87
						c-0.308-0.197-0.721-0.291-1.237-0.291h-1.16v9.494h1.207V505.394L65.192,505.394z"/>
					<path id="path239" inkscape:connector-curvature="0" fill="#FFFFFF" d="M79.519,496.129H74.7v3.175h4.536v2.229H74.7v3.63
						h5.012v2.235h-7.729v-13.5h7.543v2.229L79.519,496.129L79.519,496.129z"/>
				</g>
			</g>
		</g>
		<g id="g241" transform="matrix(0.704,0,0,0.704,82.031837,57.501661)">
			<g id="g243">
				<path id="path245" inkscape:connector-curvature="0" fill="#FFFFFF" d="M175.072,483.427c0,0.312,0.022,0.602,0.075,0.863
					c0.047,0.255,0.144,0.473,0.283,0.652c0.133,0.172,0.327,0.308,0.563,0.413c0.233,0.104,0.524,0.147,0.877,0.147
					c0.413,0,0.793-0.133,1.129-0.404c0.33-0.271,0.499-0.691,0.499-1.261c0-0.308-0.047-0.569-0.13-0.788
					c-0.08-0.215-0.214-0.411-0.408-0.591c-0.186-0.178-0.433-0.337-0.741-0.483c-0.294-0.141-0.677-0.291-1.143-0.443
					c-0.605-0.201-1.129-0.423-1.57-0.659c-0.438-0.241-0.813-0.516-1.101-0.839c-0.291-0.322-0.519-0.692-0.649-1.119
					c-0.133-0.418-0.211-0.91-0.211-1.468c0-1.336,0.372-2.322,1.11-2.985c0.744-0.652,1.77-0.988,3.066-0.988
					c0.602,0,1.162,0.067,1.673,0.205c0.51,0.132,0.952,0.341,1.323,0.641c0.377,0.297,0.663,0.669,0.874,1.135
					c0.208,0.458,0.308,1.007,0.308,1.654v0.379h-2.608c0-0.645-0.119-1.14-0.341-1.487c-0.225-0.344-0.605-0.523-1.129-0.523
					c-0.308,0-0.56,0.04-0.763,0.126c-0.191,0.093-0.358,0.211-0.469,0.35c-0.122,0.144-0.205,0.313-0.253,0.505
					c-0.036,0.186-0.061,0.384-0.061,0.584c0,0.411,0.086,0.763,0.261,1.049c0.18,0.286,0.552,0.547,1.135,0.784l2.095,0.911
					c0.516,0.225,0.943,0.465,1.273,0.707c0.316,0.244,0.58,0.51,0.782,0.796c0.197,0.284,0.33,0.591,0.405,0.935
					c0.08,0.344,0.111,0.721,0.111,1.132c0,1.43-0.411,2.469-1.24,3.107c-0.824,0.649-1.961,0.974-3.44,0.974
					c-1.537,0-2.641-0.336-3.299-1.002c-0.663-0.663-0.99-1.626-0.99-2.871v-0.556h2.719L175.072,483.427L175.072,483.427z"/>
				<path id="path247" inkscape:connector-curvature="0" fill="#FFFFFF" d="M182.552,477.666c0.097-0.864,0.302-1.605,0.621-2.218
					c0.319-0.616,0.785-1.096,1.387-1.448c0.605-0.344,1.415-0.519,2.439-0.519c1.018,0,1.837,0.175,2.441,0.519
					c0.602,0.345,1.062,0.832,1.387,1.448c0.311,0.613,0.522,1.351,0.621,2.218c0.097,0.864,0.136,1.81,0.136,2.831
					c0,1.035-0.042,1.978-0.136,2.834c-0.1,0.857-0.311,1.597-0.621,2.213c-0.325,0.621-0.793,1.093-1.387,1.418
					c-0.61,0.333-1.426,0.497-2.441,0.497c-1.021,0-1.834-0.168-2.439-0.497c-0.605-0.322-1.071-0.795-1.387-1.418
					c-0.319-0.616-0.527-1.35-0.621-2.213c-0.1-0.856-0.147-1.799-0.147-2.834C182.405,479.476,182.452,478.531,182.552,477.666z
					 M185.198,482.804c0.042,0.642,0.128,1.158,0.261,1.555c0.128,0.394,0.316,0.681,0.569,0.871
					c0.244,0.179,0.569,0.269,0.977,0.269s0.727-0.09,0.974-0.269c0.247-0.183,0.438-0.477,0.571-0.871
					c0.128-0.397,0.214-0.913,0.261-1.555c0.047-0.63,0.061-1.402,0.061-2.317c0-0.907-0.019-1.673-0.061-2.304
					c-0.047-0.633-0.128-1.15-0.261-1.551c-0.136-0.397-0.325-0.701-0.571-0.885c-0.247-0.179-0.566-0.266-0.974-0.266
					c-0.405,0-0.732,0.087-0.977,0.266c-0.247,0.186-0.436,0.48-0.569,0.885c-0.128,0.398-0.219,0.914-0.261,1.551
					c-0.047,0.631-0.069,1.401-0.069,2.304C185.132,481.401,185.149,482.175,185.198,482.804z"/>
				<path id="path249" inkscape:connector-curvature="0" fill="#FFFFFF" d="M200.746,473.743v2.229h-4.824v3.178h4.539v2.232h-4.539
					v5.859h-2.719v-13.5L200.746,473.743L200.746,473.743z"/>
			</g>
			<g id="g251">
				<path id="path253" inkscape:connector-curvature="0" fill="#FFFFFF" d="M209.882,475.978h-2.946v11.267h-2.724v-11.267h-2.952
					v-2.226h8.623V475.978z"/>
			</g>
			<g id="g255">
				<path id="path257" inkscape:connector-curvature="0" fill="#FFFFFF" d="M177.902,492.65c1.14,0,2.02,0.29,2.658,0.864
					c0.627,0.571,0.938,1.44,0.938,2.615c0,0.91-0.189,1.645-0.555,2.222c-0.366,0.573-0.932,0.942-1.695,1.103v0.047
					c0.682,0.094,1.179,0.313,1.493,0.655c0.319,0.344,0.51,0.885,0.58,1.645c0.031,0.25,0.047,0.524,0.058,0.824
					c0.019,0.297,0.025,0.631,0.039,0.996c0.025,0.719,0.069,1.265,0.116,1.641c0.075,0.381,0.239,0.642,0.485,0.773v0.111h-2.949
					c-0.136-0.186-0.225-0.397-0.266-0.649c-0.044-0.25-0.069-0.502-0.078-0.766l-0.075-2.584c-0.025-0.534-0.15-0.946-0.386-1.254
					c-0.247-0.308-0.646-0.462-1.21-0.462h-1.448v5.715h-2.724v-13.492L177.902,492.65L177.902,492.65z M176.731,498.549
					c0.66,0,1.162-0.15,1.52-0.466c0.349-0.305,0.524-0.824,0.524-1.556c0-1.25-0.63-1.877-1.886-1.877h-1.298v3.891
					L176.731,498.549L176.731,498.549L176.731,498.549z"/>
				<path id="path259" inkscape:connector-curvature="0" fill="#FFFFFF" d="M190.93,494.882h-4.819v3.177h4.536v2.226h-4.536v3.63
					h5.013v2.229h-7.735v-13.5h7.549L190.93,494.882L190.93,494.882z"/>
				<path id="path261" inkscape:connector-curvature="0" fill="#FFFFFF" d="M194.678,502.334c0,0.308,0.022,0.602,0.075,0.863
					c0.05,0.255,0.141,0.477,0.286,0.652c0.133,0.179,0.322,0.311,0.558,0.412c0.23,0.104,0.521,0.15,0.877,0.15
					c0.411,0,0.796-0.133,1.126-0.401c0.333-0.272,0.497-0.691,0.497-1.26c0-0.308-0.042-0.567-0.128-0.791
					c-0.08-0.214-0.216-0.412-0.402-0.591c-0.197-0.175-0.441-0.337-0.741-0.47c-0.308-0.143-0.691-0.298-1.143-0.448
					c-0.61-0.205-1.132-0.423-1.57-0.663c-0.447-0.232-0.813-0.516-1.101-0.83c-0.297-0.323-0.516-0.702-0.655-1.115
					c-0.141-0.43-0.208-0.916-0.208-1.472c0-1.333,0.377-2.322,1.118-2.985c0.746-0.655,1.767-0.986,3.06-0.986
					c0.605,0,1.162,0.069,1.673,0.201c0.505,0.129,0.954,0.341,1.323,0.645c0.38,0.301,0.655,0.677,0.871,1.132
					c0.208,0.466,0.308,1.01,0.308,1.655v0.379h-2.608c0-0.644-0.119-1.137-0.344-1.487c-0.222-0.344-0.602-0.516-1.14-0.516
					c-0.308,0-0.549,0.046-0.749,0.129c-0.197,0.089-0.358,0.204-0.48,0.344c-0.117,0.146-0.205,0.312-0.247,0.501
					c-0.039,0.196-0.069,0.386-0.069,0.585c0,0.413,0.094,0.766,0.277,1.049c0.164,0.287,0.552,0.549,1.132,0.788l2.095,0.916
					c0.516,0.219,0.943,0.463,1.26,0.705c0.325,0.247,0.588,0.509,0.791,0.793c0.191,0.289,0.333,0.598,0.402,0.938
					c0.075,0.34,0.111,0.717,0.111,1.132c0,1.426-0.411,2.465-1.234,3.107c-0.827,0.653-1.973,0.974-3.44,0.974
					c-1.537,0-2.638-0.337-3.304-1.006c-0.652-0.667-0.993-1.619-0.993-2.873v-0.547h2.724v0.394h-0.008l0,0l0,0v-0.003H194.678z"/>
				<path id="path263" inkscape:connector-curvature="0" fill="#FFFFFF" d="M209.837,494.882h-4.825v3.177h4.539v2.226h-4.539v3.63
					h5.021v2.229h-7.735v-13.5h7.541L209.837,494.882L209.837,494.882z"/>
				<path id="path265" inkscape:connector-curvature="0" fill="#FFFFFF" d="M219.295,494.882h-2.955v11.268h-2.716v-11.268h-2.952
					v-2.228h8.617v2.228H219.295z"/>
			</g>
		</g>
		<g id="g267" transform="matrix(0.704,0,0,0.704,82.031837,57.501661)">
			<g id="g269">
				<g id="g271">
					<path id="path273" inkscape:connector-curvature="0" fill="#FFFFFF" d="M220.097-32.598c0,0.312,0.031,0.602,0.078,0.859
						c0.039,0.264,0.136,0.479,0.283,0.658c0.136,0.18,0.319,0.313,0.558,0.411c0.236,0.105,0.533,0.148,0.882,0.148
						c0.413,0,0.785-0.128,1.124-0.398c0.336-0.268,0.505-0.691,0.505-1.26c0-0.308-0.047-0.569-0.13-0.789
						c-0.078-0.215-0.222-0.413-0.405-0.592c-0.197-0.165-0.438-0.339-0.741-0.472c-0.311-0.144-0.694-0.297-1.149-0.447
						c-0.608-0.2-1.124-0.424-1.567-0.658c-0.441-0.243-0.813-0.515-1.101-0.841c-0.3-0.313-0.516-0.692-0.658-1.11
						c-0.139-0.43-0.208-0.917-0.208-1.469c0-1.337,0.372-2.323,1.115-2.987c0.744-0.66,1.765-0.992,3.06-0.992
						c0.605,0,1.162,0.069,1.673,0.203c0.51,0.139,0.952,0.349,1.329,0.644c0.372,0.298,0.655,0.669,0.866,1.133
						c0.208,0.465,0.308,1.017,0.308,1.662v0.372h-2.613c0-0.644-0.117-1.133-0.341-1.477c-0.222-0.347-0.61-0.519-1.132-0.519
						c-0.308,0-0.56,0.039-0.763,0.129c-0.191,0.087-0.358,0.207-0.469,0.343c-0.122,0.144-0.205,0.311-0.25,0.506
						c-0.042,0.184-0.067,0.383-0.067,0.578c0,0.42,0.089,0.766,0.269,1.05c0.178,0.284,0.555,0.547,1.132,0.788l2.103,0.911
						c0.522,0.226,0.935,0.465,1.26,0.708c0.319,0.238,0.588,0.51,0.791,0.786c0.191,0.295,0.327,0.608,0.402,0.943
						c0.075,0.336,0.117,0.72,0.117,1.131c0,1.424-0.411,2.462-1.237,3.108c-0.83,0.651-1.973,0.97-3.454,0.97
						c-1.531,0-2.636-0.325-3.299-1.004c-0.655-0.666-0.985-1.62-0.985-2.869v-0.558h2.722v0.402h-0.006V-32.598z"/>
					<path id="path275" inkscape:connector-curvature="0" fill="#FFFFFF" d="M235.616-40.049h-2.949v11.272h-2.722v-11.272h-2.946
						v-2.228h8.617V-40.049L235.616-40.049z"/>
				</g>
				<g id="g277">
					<path id="path279" inkscape:connector-curvature="0" fill="#FFFFFF" d="M241.742-42.277l3.573,13.496h-2.833l-0.635-2.853
						h-3.59l-0.63,2.853h-2.835l3.576-13.496H241.742L241.742-42.277z M241.384-33.87l-1.307-6.069h-0.036l-1.307,6.069H241.384
						L241.384-33.87z"/>
				</g>
			</g>
		</g>
		<g id="g281" transform="matrix(0.704,0,0,0.704,82.031837,57.501661)">
			<g id="g283">
				<path id="path285" inkscape:connector-curvature="0" fill="#FFFFFF" d="M16.875-42.697l3.576,13.49h-2.835l-0.627-2.845h-3.593
					l-0.63,2.845H9.932l3.572-13.49H16.875z M16.524-34.282l-1.308-6.069h-0.039l-1.308,6.069H16.524z"/>
				<path id="path287" inkscape:connector-curvature="0" fill="#FFFFFF" d="M26.16-42.697c0.699,0,1.279,0.11,1.748,0.342
					c0.474,0.232,0.854,0.54,1.14,0.918c0.291,0.378,0.492,0.814,0.621,1.29c0.129,0.482,0.193,0.987,0.193,1.486
					c0,0.698-0.107,1.301-0.312,1.812c-0.208,0.523-0.494,0.942-0.867,1.266c-0.376,0.326-0.828,0.569-1.354,0.745
					c-0.523,0.16-1.115,0.241-1.759,0.241h-1.455v5.385h-2.724v-13.497L26.16-42.697L26.16-42.697z M25.322-36.588
					c0.552,0,0.985-0.164,1.321-0.486c0.338-0.332,0.499-0.841,0.499-1.534c0-0.678-0.144-1.19-0.437-1.543
					c-0.289-0.352-0.773-0.524-1.452-0.524h-1.132v4.101L25.322-36.588L25.322-36.588z"/>
			</g>
		</g>
		<rect id="rect4276" x="4.792" y="25.716" fill="#333333" width="45.672" height="136.598"/>
		<rect id="rect4280" x="297.867" y="25.716" fill="#333333" width="46.053" height="136.422"/>
		<rect id="rect4278" x="297.867" y="168.248" fill="#333333" width="46.053" height="136.59"/>
		<g id="g481" transform="matrix(0.704,0,0,0.704,82.031837,57.501661)">
			<path id="path483" inkscape:connector-curvature="0" fill="#FFFFFF" d="M104.585,479.027v-2.605h5.529v2.605H104.585z"/>
			<path id="path485" inkscape:connector-curvature="0" fill="#FFFFFF" d="M125.947,481.776c-0.522,0.523-1.437,1.028-2.783,1.028
				c-1.351,0-2.325-0.523-2.849-1.05c-0.863-0.86-0.977-1.838-1.049-2.716h2.762c0.09,0.798,0.424,1.265,1.129,1.265
				c0.343,0,0.562-0.083,0.777-0.308c0.254-0.258,0.355-0.691,0.355-1.401c0-1.334-0.458-1.701-1.132-1.701
				c-0.806,0-1.014,0.541-1.129,0.857h-2.547v-7.069h7.32v2.502h-4.808v1.853c0.233-0.183,0.878-0.47,1.616-0.47
				c1.042,0,1.834,0.343,2.329,0.839c0.974,0.977,1.107,2.056,1.107,3.179C127.062,480.053,126.847,480.88,125.947,481.776
				L125.947,481.776z"/>
			<path id="path487" inkscape:connector-curvature="0" fill="#FFFFFF" d="M133.95,482.703h-2.19l-3.969-12.01h3.056l2.025,6.715
				l1.992-6.715h3.074L133.95,482.703z"/>
			<path id="path489" inkscape:connector-curvature="0" fill="#FFFFFF" d="M151.41,479.226v2.566h-2.597v-2.566h-2.569v-2.594h2.569
				v-2.563h2.597v2.563h2.561v2.594H151.41z"/>
		</g>
		<rect id="rect4272" x="4.792" y="310.596" fill="#333333" width="45.703" height="58.613"/>
		<polyline id="polyline591" fill="#E7AB22" points="276.677,97.403 236.201,60.613 276.787,60.613 		"/>
		<rect id="rect29" x="289.238" y="58.096" fill="#E7AB22" width="8.629" height="3.449"/>
		<rect id="rect3317-2-1-3-6-5-4-6-6-7-2-7-5-1-6_26_" x="297.91" y="52.99" fill="#333333" width="46.051" height="13.646"/>
		<text transform="matrix(1 0 0 1 311.9721 61.7852)" fill="#FFFFFF" font-family="'ArialMT'" font-size="7.3687">ADC 31</text>
		<rect id="rect27" x="289.238" y="71.768" fill="#E7AB22" width="8.629" height="3.453"/>
		<rect id="rect3317-2-1-3-6-5-4-6-6-7-2-7-5-1-6_27_" x="297.91" y="66.672" fill="#333333" width="46.051" height="13.64"/>
		<text transform="matrix(1 0 0 1 311.9721 75.4648)" fill="#FFFFFF" font-family="'ArialMT'" font-size="7.3687">ADC 30</text>
		<rect id="rect25" x="289.238" y="85.439" fill="#E7AB22" width="8.629" height="3.451"/>
		<rect id="rect3317-2-1-3-6-5-4-6-6-7-2-7-5-1-6_28_" x="297.91" y="80.348" fill="#333333" width="46.051" height="13.64"/>
		<text transform="matrix(1 0 0 1 310.3315 89.1367)" fill="#FFFFFF" font-family="'ArialMT'" font-size="7.3687"> ADC 29</text>
		<rect id="rect23" x="289.238" y="99.116" fill="#E7AB22" width="8.629" height="3.45"/>
		<rect id="rect3317-2-1-3-6-5-4-6-6-7-2-7-5-1-6_29_" x="297.91" y="94.019" fill="#333333" width="46.051" height="13.642"/>
		<text transform="matrix(1 0 0 1 311.9721 102.8096)" fill="#FFFFFF" font-family="'ArialMT'" font-size="7.3687">ADC 28</text>
		<rect id="rect21" x="289.238" y="112.789" fill="#E7AB22" width="8.629" height="3.452"/>
		<rect id="rect3317-2-1-3-6-5-4-6-6-7-2-7-5-1-6_30_" x="297.91" y="107.694" fill="#333333" width="46.051" height="13.64"/>
		<text transform="matrix(1 0 0 1 310.3315 116.4736)" fill="#FFFFFF" font-family="'ArialMT'" font-size="7.3687"> ADC 27</text>
		<rect id="rect19" x="289.238" y="126.464" fill="#E7AB22" width="8.629" height="3.447"/>
		<rect id="rect3317-2-1-3-6-5-4-6-6-7-2-7-5-1-6_31_" x="297.91" y="121.368" fill="#333333" width="46.051" height="13.643"/>
		<text transform="matrix(1 0 0 1 311.9721 130.1543)" fill="#FFFFFF" font-family="'ArialMT'" font-size="7.3687">ADC 26</text>
		<rect id="rect17" x="289.238" y="140.136" fill="#E7AB22" width="8.629" height="3.45"/>
		<rect id="rect3317-2-1-3-6-5-4-6-6-7-2-7-5-1-6_32_" x="297.91" y="135.042" fill="#333333" width="46.051" height="13.64"/>
		<text transform="matrix(1 0 0 1 310.3315 143.8262)" fill="#FFFFFF" font-family="'ArialMT'" font-size="7.3687"> ADC 25</text>
		<rect id="rect33" x="289.238" y="153.81" fill="#E7AB22" width="8.629" height="3.452"/>
		<rect id="rect3317-2-1-3-6-5-4-6-6-7-2-7-5-1-6_33_" x="297.91" y="148.715" fill="#333333" width="46.051" height="13.64"/>
		<text transform="matrix(1 0 0 1 311.9721 157.498)" fill="#FFFFFF" font-family="'ArialMT'" font-size="7.3687">ADC 24</text>
		<rect id="rect35" x="289.238" y="30.748" fill="#E7AB22" width="8.629" height="3.451"/>
		<rect id="rect3317-2-1-3-6-5-4-6-6-7-2-7-5-1-6_10_" x="297.91" y="25.652" fill="#333333" width="46.051" height="13.639"/>
		<text transform="matrix(1 0 0 1 323.1284 34.4395)" fill="#FFFFFF" font-family="'ArialMT'" font-size="7.3687">+3.3  </text>
		<rect id="rect31" x="289.238" y="44.429" fill="#E7AB22" width="8.629" height="3.445"/>
		<rect id="rect3317-2-1-3-6-5-4-6-6-7-2-7-5-1-6_25_" x="297.91" y="39.324" fill="#333333" width="46.051" height="13.642"/>
		<g id="g413" transform="matrix(0.704,0,0,0.704,82.189437,57.292757)">
			
				<line id="line415" fill="none" stroke="#F1F1F2" stroke-width="1.1614" stroke-linecap="round" stroke-miterlimit="10" x1="357.973" y1="-19.625" x2="357.973" y2="-15.963"/>
			
				<line id="line417" fill="none" stroke="#F1F1F2" stroke-width="1.256" stroke-linecap="round" stroke-miterlimit="10" x1="352.91" y1="-15.601" x2="363.047" y2="-15.601"/>
			
				<line id="line419" fill="none" stroke="#F1F1F2" stroke-width="1.256" stroke-linecap="round" stroke-miterlimit="10" x1="354.896" y1="-13.781" x2="361.058" y2="-13.781"/>
			
				<line id="line421" fill="none" stroke="#F1F1F2" stroke-width="1.256" stroke-linecap="round" stroke-miterlimit="10" x1="357.235" y1="-12.041" x2="358.719" y2="-12.041"/>
		</g>
		<rect id="rect155" x="289.238" y="173.455" fill="#E7AB22" width="8.629" height="3.451"/>
		<rect id="rect3317-2-1-3-6-5-4-6-6-7-2-7-5-1-6_34_" x="297.818" y="168.359" fill="#333333" width="46.057" height="13.641"/>
		<text transform="matrix(1 0 0 1 323.1263 177.1494)" fill="#FFFFFF" font-family="'ArialMT'" font-size="7.3687">+3.3  </text>
		<rect id="rect151" x="289.238" y="187.104" fill="#E7AB22" width="8.629" height="3.451"/>
		<rect id="rect3317-2-1-3-6-5-4-6-6-7-2-7-5-1-6_35_" x="297.818" y="182.008" fill="#333333" width="46.057" height="13.641"/>
		<g id="g435" transform="matrix(0.704,0,0,0.704,82.792077,57.292757)">
			
				<line id="line437" fill="none" stroke="#F1F1F2" stroke-width="1.1614" stroke-linecap="round" stroke-miterlimit="10" x1="357.117" y1="183.049" x2="357.117" y2="186.708"/>
			
				<line id="line439" fill="none" stroke="#F1F1F2" stroke-width="1.256" stroke-linecap="round" stroke-miterlimit="10" x1="352.06" y1="187.08" x2="362.191" y2="187.08"/>
			
				<line id="line441" fill="none" stroke="#F1F1F2" stroke-width="1.256" stroke-linecap="round" stroke-miterlimit="10" x1="354.04" y1="188.898" x2="360.202" y2="188.898"/>
			
				<line id="line443" fill="none" stroke="#F1F1F2" stroke-width="1.256" stroke-linecap="round" stroke-miterlimit="10" x1="356.379" y1="190.634" x2="357.863" y2="190.634"/>
		</g>
		<rect id="rect149" x="289.238" y="200.753" fill="#E7AB22" width="8.629" height="3.451"/>
		<rect id="rect3317-2-1-3-6-5-4-6-6-7-2-7-5-1-6_36_" x="297.818" y="195.659" fill="#333333" width="46.057" height="13.639"/>
		<text transform="matrix(1 0 0 1 309.5228 204.4453)" fill="#FFFFFF" font-family="'ArialMT'" font-size="7.3687">PWM 23</text>
		<rect id="rect147" x="289.238" y="214.403" fill="#E7AB22" width="8.629" height="3.455"/>
		<rect id="rect3317-2-1-3-6-5-4-6-6-7-2-7-5-1-6_37_" x="297.818" y="209.304" fill="#333333" width="46.057" height="13.645"/>
		<text transform="matrix(1 0 0 1 309.5228 218.0928)" fill="#FFFFFF" font-family="'ArialMT'" font-size="7.3687">PWM 22</text>
		<rect id="rect145" x="289.238" y="228.056" fill="#E7AB22" width="8.629" height="3.453"/>
		<rect id="rect3317-2-1-3-6-5-4-6-6-7-2-7-5-1-6_38_" x="297.818" y="222.962" fill="#333333" width="46.057" height="13.639"/>
		<text transform="matrix(1 0 0 1 309.5228 231.7402)" fill="#FFFFFF" font-family="'ArialMT'" font-size="7.3687">PWM 21</text>
		<rect id="rect143" x="289.238" y="241.709" fill="#E7AB22" width="8.629" height="3.451"/>
		<rect id="rect3317-2-1-3-6-5-4-6-6-7-2-7-5-1-6_39_" x="297.818" y="236.607" fill="#333333" width="46.057" height="13.641"/>
		<g>
			<text transform="matrix(1 0 0 1 309.5228 245.3955)" fill="#FFFFFF" font-family="'ArialMT'" font-size="7.3687">PWM 20</text>
		</g>
		<rect id="rect141" x="289.238" y="255.355" fill="#E7AB22" width="8.629" height="3.448"/>
		<rect id="rect3317-2-1-3-6-5-4-6-6-7-2-7-5-1-6_40_" x="297.818" y="250.26" fill="#333333" width="46.057" height="13.64"/>
		<g>
			<text transform="matrix(1 0 0 1 309.5228 259.0439)" fill="#FFFFFF" font-family="'ArialMT'" font-size="7.3687">PWM 19</text>
		</g>
		<rect id="rect139" x="289.238" y="269.01" fill="#E7AB22" width="8.629" height="3.455"/>
		<rect id="rect3317-2-1-3-6-5-4-6-6-7-2-7-5-1-6_41_" x="297.818" y="263.912" fill="#333333" width="46.057" height="13.639"/>
		<g>
			<text transform="matrix(1 0 0 1 309.5228 272.6992)" fill="#FFFFFF" font-family="'ArialMT'" font-size="7.3687">PWM 18</text>
		</g>
		<rect id="rect137" x="289.238" y="282.657" fill="#E7AB22" width="8.629" height="3.45"/>
		<rect id="rect3317-2-1-3-6-5-4-6-6-7-2-7-5-1-6_42_" x="297.818" y="277.562" fill="#333333" width="46.057" height="13.639"/>
		<text transform="matrix(1 0 0 1 329.5755 286.3477)" fill="#FFFFFF" font-family="'ArialMT'" font-size="7.3687">17</text>
		<rect id="rect153" x="289.238" y="296.31" fill="#E7AB22" width="8.629" height="3.448"/>
		<rect id="rect3317-2-1-3-6-5-4-6-6-7-2-7-5-1-6_43_" x="297.818" y="291.209" fill="#333333" width="46.057" height="13.643"/>
		<text transform="matrix(1 0 0 1 329.5755 299.9961)" fill="#FFFFFF" font-family="'ArialMT'" font-size="7.3687">16</text>
		<rect id="rect3317-2-1-3-6-5-4-6-6-7-2-7-5-1-6_20_" x="4.792" y="291.209" fill="#333333" width="45.698" height="13.638"/>
		<g id="g343" transform="matrix(0.704,0,0,0.704,82.024007,57.456794)">
			<text transform="matrix(1.4205 0 0 1.4205 -101.2507 344.5161)" fill="#FFFFFF" font-family="'ArialMT'" font-size="7.3704">+3.3 </text>
		</g>
		<rect id="rect3317-2-1-3-6-5-4-6-6-7-2-7-5-1-6_11_" x="4.792" y="168.359" fill="#333333" width="45.698" height="13.639"/>
		<rect id="rect3317-2-1-3-6-5-4-6-6-7-2-7-5-1-6_12_" x="4.792" y="182.008" fill="#333333" width="45.698" height="13.636"/>
		<rect id="rect3317-2-1-3-6-5-4-6-6-7-2-7-5-1-6_13_" x="4.792" y="195.663" fill="#333333" width="45.698" height="13.635"/>
		<rect id="rect179" x="50.583" y="296.305" fill="#E7AB22" width="8.885" height="3.453"/>
		<rect id="rect181" x="50.583" y="173.451" fill="#E7AB22" width="8.885" height="3.451"/>
		<rect id="rect177" x="50.583" y="187.104" fill="#E7AB22" width="8.885" height="3.449"/>
		<rect id="rect175" x="50.583" y="200.755" fill="#E7AB22" width="8.885" height="3.447"/>
		<rect id="rect173" x="50.583" y="214.403" fill="#E7AB22" width="8.885" height="3.451"/>
		<rect id="rect3317-2-1-3-6-5-4-6-6-7-2-7-5-1-6_14_" x="4.792" y="209.3" fill="#333333" width="45.698" height="13.647"/>
		<text transform="matrix(1 0 0 1 10.7419 218.0928)" fill="#FFFFFF" font-family="'ArialMT'" font-size="7.3687">11 MISO 1</text>
		<rect id="rect171" x="50.583" y="228.054" fill="#E7AB22" width="8.885" height="3.455"/>
		<rect id="rect3317-2-1-3-6-5-4-6-6-7-2-7-5-1-6_15_" x="4.792" y="222.962" fill="#333333" width="45.7" height="13.638"/>
		<text transform="matrix(1 0 0 1 10.7419 231.749)" fill="#FFFFFF" font-family="'ArialMT'" font-size="7.3687">12 SCK 1</text>
		<rect id="rect169" x="50.583" y="241.705" fill="#E7AB22" width="8.885" height="3.449"/>
		<rect id="rect3317-2-1-3-6-5-4-6-6-7-2-7-5-1-6_16_" x="4.792" y="236.605" fill="#333333" width="45.698" height="13.643"/>
		<text transform="matrix(1 0 0 1 10.7419 245.3955)" fill="#FFFFFF" font-family="'ArialMT'" font-size="7.3687">13</text>
		<rect id="rect167" x="50.583" y="255.355" fill="#E7AB22" width="8.885" height="3.448"/>
		<rect id="rect3317-2-1-3-6-5-4-6-6-7-2-7-5-1-6_17_" x="4.792" y="250.26" fill="#333333" width="45.698" height="13.639"/>
		<text transform="matrix(1 0 0 1 10.7419 259.0439)" fill="#FFFFFF" font-family="'ArialMT'" font-size="7.3687">14</text>
		<rect id="rect165" x="50.583" y="269.006" fill="#E7AB22" width="8.885" height="3.451"/>
		<rect id="rect3317-2-1-3-6-5-4-6-6-7-2-7-5-1-6_18_" x="4.792" y="263.906" fill="#333333" width="45.698" height="13.641"/>
		<text transform="matrix(1 0 0 1 10.7419 272.6914)" fill="#FFFFFF" font-family="'ArialMT'" font-size="7.3687">15</text>
		<rect id="rect163" x="50.583" y="282.655" fill="#E7AB22" width="8.885" height="3.448"/>
		<rect id="rect3317-2-1-3-6-5-4-6-6-7-2-7-5-1-6_19_" x="4.792" y="277.562" fill="#333333" width="45.698" height="13.635"/>
		<g id="g579" transform="matrix(0.704,0,0,0.704,82.014857,57.513115)">
			
				<line id="line581" fill="none" stroke="#F1F1F2" stroke-width="1.1614" stroke-linecap="round" stroke-miterlimit="10" x1="-96.005" y1="318.456" x2="-96.005" y2="322.119"/>
			
				<line id="line583" fill="none" stroke="#F1F1F2" stroke-width="1.256" stroke-linecap="round" stroke-miterlimit="10" x1="-101.071" y1="322.499" x2="-90.94" y2="322.499"/>
			
				<line id="line585" fill="none" stroke="#F1F1F2" stroke-width="1.256" stroke-linecap="round" stroke-miterlimit="10" x1="-99.084" y1="324.314" x2="-92.925" y2="324.314"/>
			
				<line id="line587" fill="none" stroke="#F1F1F2" stroke-width="1.256" stroke-linecap="round" stroke-miterlimit="10" x1="-96.749" y1="326.048" x2="-95.262" y2="326.048"/>
		</g>
		<rect x="50.583" y="330.605" fill="#E7AB22" width="9.01" height="3.454"/>
		<rect id="rect3317-2-1-3-6-5-4-6-6-7-2-7-5-1-6_22_" x="4.792" y="325.515" fill="#333333" width="45.7" height="13.639"/>
		<g id="g503" transform="matrix(0.704,0,0,0.704,82.074337,57.456724)">
			<text transform="matrix(1.4205 0 0 1.4205 -101.0768 393.2556)" fill="#FFFFFF" font-family="'ArialMT'" font-size="7.3704">SCL  </text>
		</g>
		<rect x="50.583" y="315.625" fill="#E7AB22" width="9.01" height="3.459"/>
		<rect id="rect3317-2-1-3-6-5-4-6-6-7-2-7-5-1-6_21_" x="4.792" y="310.535" fill="#333333" width="45.698" height="13.639"/>
		<g id="g509" transform="matrix(0.704,0,0,0.704,82.013867,57.456724)">
			<text transform="matrix(1.4205 0 0 1.4205 -101.4861 371.971)" fill="#FFFFFF" font-family="'ArialMT'" font-size="7.3704">SDA </text>
		</g>
		<rect x="50.583" y="360.57" fill="#E7AB22" width="9.01" height="3.457"/>
		<rect id="rect3317-2-1-3-6-5-4-6-6-7-2-7-5-1-6_24_" x="4.792" y="355.481" fill="#333333" width="45.7" height="13.639"/>
		<g id="g515" transform="matrix(0.704,0,0,0.704,81.912137,57.456724)">
			<text transform="matrix(1.4205 0 0 1.4205 -101.339 435.8084)" fill="#FFFFFF" font-family="'ArialMT'" font-size="7.3704">+5.0</text>
		</g>
		<rect x="50.583" y="345.59" fill="#E7AB22" width="9.01" height="3.463"/>
		<rect id="rect3317-2-1-3-6-5-4-6-6-7-2-7-5-1-6_23_" x="4.792" y="340.496" fill="#333333" width="45.699" height="13.639"/>
		<g id="g521" transform="matrix(0.704,0,0,0.704,82.779887,57.513115)">
			
				<line id="line523" fill="none" stroke="#F1F1F2" stroke-width="1.1614" stroke-linecap="round" stroke-miterlimit="10" x1="-96.847" y1="407.863" x2="-96.847" y2="411.517"/>
			
				<line id="line525" fill="none" stroke="#F1F1F2" stroke-width="1.256" stroke-linecap="round" stroke-miterlimit="10" x1="-101.914" y1="411.897" x2="-91.785" y2="411.897"/>
			
				<line id="line527" fill="none" stroke="#F1F1F2" stroke-width="1.256" stroke-linecap="round" stroke-miterlimit="10" x1="-99.922" y1="413.717" x2="-93.766" y2="413.717"/>
			
				<line id="line529" fill="none" stroke="#F1F1F2" stroke-width="1.256" stroke-linecap="round" stroke-miterlimit="10" x1="-97.585" y1="415.454" x2="-96.105" y2="415.454"/>
		</g>
		<rect id="rect205" x="50.583" y="30.748" fill="#E7AB22" width="8.885" height="3.451"/>
		<rect id="rect3317-2-1-3-6-5-4-6-6-7-2-7-5-1-6_9_" x="4.792" y="25.653" fill="#333333" width="45.699" height="13.639"/>
		<rect id="rect201" x="50.583" y="44.427" fill="#E7AB22" width="8.885" height="3.447"/>
		<rect id="rect3317-2-1-3-6-5-4-6-6-7-2-7-5-1-6_8_" x="4.792" y="39.324" fill="#333333" width="45.699" height="13.64"/>
		<rect id="rect199" x="50.583" y="58.096" fill="#E7AB22" width="8.885" height="3.451"/>
		<rect id="rect3317-2-1-3-6-5-4-6-6-7-2-7-5-1-6_7_" x="4.792" y="52.992" fill="#333333" width="45.699" height="13.645"/>
		<rect id="rect197" x="50.583" y="71.768" fill="#E7AB22" width="8.885" height="3.453"/>
		<rect id="rect3317-2-1-3-6-5-4-6-6-7-2-7-5-1-6_6_" x="4.792" y="66.676" fill="#333333" width="45.699" height="13.638"/>
		<rect id="rect193" x="50.583" y="99.123" fill="#E7AB22" width="8.885" height="3.444"/>
		<rect id="rect3317-2-1-3-6-5-4-6-6-7-2-7-5-1-6_4_" x="4.792" y="94.023" fill="#333333" width="45.705" height="13.638"/>
		<rect id="rect191" x="50.583" y="112.789" fill="#E7AB22" width="8.885" height="3.452"/>
		<rect id="rect3317-2-1-3-6-5-4-6-6-7-2-7-5-1-6_3_" x="4.792" y="107.695" fill="#333333" width="45.699" height="13.636"/>
		<rect id="rect189" x="50.583" y="126.466" fill="#E7AB22" width="8.885" height="3.447"/>
		<rect id="rect3317-2-1-3-6-5-4-6-6-7-2-7-5-1-6_2_" x="4.792" y="121.368" fill="#333333" width="45.699" height="13.643"/>
		<rect id="rect203" x="50.583" y="153.813" fill="#E7AB22" width="8.885" height="3.449"/>
		<rect id="rect3317-2-1-3-6-5-4-6-6-7-2-7-5-1-6" x="4.792" y="148.717" fill="#333333" width="45.699" height="13.64"/>
		<rect id="rect187" x="50.583" y="140.139" fill="#E7AB22" width="8.885" height="3.45"/>
		<rect id="rect3317-2-1-3-6-5-4-6-6-7-2-7-5-1-6_1_" x="4.792" y="135.044" fill="#333333" width="45.699" height="13.64"/>
		<rect id="rect195" x="50.583" y="85.442" fill="#E7AB22" width="8.885" height="3.453"/>
		<rect id="rect3317-2-1-3-6-5-4-6-6-7-2-7-5-1-6_5_" x="4.792" y="80.35" fill="#333333" width="45.699" height="13.636"/>
		<g>
			<text transform="matrix(1 0 0 1 10.7423 177.1399)" fill="#FFFFFF" font-family="'ArialMT'" font-size="7.3687">8 </text>
			<text transform="matrix(1 0 0 1 10.7423 190.7971)" fill="#FFFFFF" font-family="'ArialMT'" font-size="7.3687">9 </text>
			<text transform="matrix(1 0 0 1 10.7423 204.4456)" fill="#FFFFFF" font-family="'ArialMT'" font-size="7.3687">10 MOSI 1 </text>
			<text transform="matrix(1 0 0 1 10.9161 34.4319)" fill="#FFFFFF" font-family="'ArialMT'" font-size="7.3687">0 RX</text>
			<text transform="matrix(1 0 0 1 10.9161 48.1038)" fill="#FFFFFF" font-family="'ArialMT'" font-size="7.3687">1 TX</text>
			<text transform="matrix(1 0 0 1 10.9161 61.7922)" fill="#FFFFFF" font-family="'ArialMT'" font-size="7.3687">2 MOSI 0</text>
			<text transform="matrix(1 0 0 1 10.9161 75.4573)" fill="#FFFFFF" font-family="'ArialMT'" font-size="7.3687">3 MISO 0</text>
			<text transform="matrix(1 0 0 1 10.9161 102.8098)" fill="#FFFFFF" font-family="'ArialMT'" font-size="7.3687">5</text>
			<text transform="matrix(1 0 0 1 10.9161 116.4817)" fill="#FFFFFF" font-family="'ArialMT'" font-size="7.3687">6</text>
			<text transform="matrix(1 0 0 1 10.9161 130.1545)" fill="#FFFFFF" font-family="'ArialMT'" font-size="7.3687">7</text>
			<g id="g337" transform="matrix(0.704,0,0,0.704,82.146127,57.059739)">
				<text transform="matrix(1.4205 0 0 1.4205 -101.1789 142.6808)" fill="#FFFFFF" font-family="'ArialMT'" font-size="7.3704">+3.3</text>
			</g>
			<g id="g349" transform="matrix(0.704,0,0,0.704,82.059577,56.62326)">
				
					<line id="line351" fill="none" stroke="#F1F1F2" stroke-width="1.1614" stroke-linecap="round" stroke-miterlimit="10" x1="-95.824" y1="117.285" x2="-95.824" y2="120.941"/>
				
					<line id="line353" fill="none" stroke="#F1F1F2" stroke-width="1.256" stroke-linecap="round" stroke-miterlimit="10" x1="-100.887" y1="121.319" x2="-90.759" y2="121.319"/>
				
					<line id="line355" fill="none" stroke="#F1F1F2" stroke-width="1.256" stroke-linecap="round" stroke-miterlimit="10" x1="-98.898" y1="123.137" x2="-92.743" y2="123.137"/>
				
					<line id="line357" fill="none" stroke="#F1F1F2" stroke-width="1.256" stroke-linecap="round" stroke-miterlimit="10" x1="-96.563" y1="124.873" x2="-95.079" y2="124.873"/>
			</g>
			<text transform="matrix(1.0233 0 0 1 10.9161 89.1322)" fill="#FFFFFF" font-family="'ArialMT'" font-size="7.3687">4 SCK   </text>
		</g>
		<text transform="matrix(1.0233 0 0 1 33.42 89.2875)" fill="#FFFFFF" font-family="'ArialMT'" font-size="7.3687">0</text>
	</g>
	<circle fill="none" stroke="#BAB9A4" stroke-miterlimit="10" cx="172.408" cy="238.5" r="6.656"/>
</g>
<g>
	<circle fill="#FF0000" cx="169.324" cy="240.312" r="3.091"/>
	<path fill="#13FF00" d="M178.597,240.312c0,1.707-1.385,3.091-3.094,3.091c-1.703,0-3.088-1.384-3.088-3.091
		s1.385-3.091,3.088-3.091C177.212,237.221,178.597,238.606,178.597,240.312z"/>
	<circle fill="#0000FF" cx="172.413" cy="234.942" r="3.091"/>
	<circle fill="#0000FF" cx="304.335" cy="228.783" r="3.091"/>
	<circle fill="#13FF00" cx="304.335" cy="242.435" r="3.091"/>
	<circle fill="#FF0000" cx="304.335" cy="256.088" r="3.091"/>
</g>
</svg>
