<?xml version="1.0" encoding="utf-8"?>
<!-- Generator: Adobe Illustrator 16.0.4, SVG Export Plug-In . SVG Version: 6.00 Build 0)  -->
<!DOCTYPE svg PUBLIC "-//W3C//DTD SVG 1.1//EN" "http://www.w3.org/Graphics/SVG/1.1/DTD/svg11.dtd">
<svg version="1.1"
	 id="Layer_1" xmlns:rdf="http://www.w3.org/1999/02/22-rdf-syntax-ns#" xmlns:svg="http://www.w3.org/2000/svg" xmlns:sodipodi="http://sodipodi.sourceforge.net/DTD/sodipodi-0.dtd" xmlns:cc="http://creativecommons.org/ns#" xmlns:dc="http://purl.org/dc/elements/1.1/" xmlns:inkscape="http://www.inkscape.org/namespaces/inkscape" sodipodi:docname="test.svg" inkscape:version="0.48.5 r10040"
	 xmlns="http://www.w3.org/2000/svg" xmlns:xlink="http://www.w3.org/1999/xlink" x="0px" y="0px" width="339.081px"
	 height="476.826px" viewBox="206.287 -243.688 339.081 476.826" enable-background="new 206.287 -243.688 339.081 476.826"
	 xml:space="preserve">
<g>
	
		<sodipodi:namedview  bordercolor="#666666" inkscape:cy="178.29005" borderopacity="1" objecttolerance="10" gridtolerance="10" guidetolerance="10" inkscape:cx="229.52308" inkscape:zoom="4" showgrid="true" showguides="true" pagecolor="#ffffff" id="namedview593" inkscape:pageopacity="0" inkscape:window-y="27" inkscape:window-width="1920" inkscape:current-layer="Layer_1" inkscape:window-x="0" inkscape:snap-page="true" inkscape:pageshadow="2" inkscape:guide-bbox="true" inkscape:window-height="984" inkscape:window-maximized="1" inkscape:snap-global="true">
		<inkscape:grid  id="grid3652" type="xygrid"></inkscape:grid>
		<sodipodi:guide  position="245.25173,57" orientation="1,0" id="guide3654"></sodipodi:guide>
		<sodipodi:guide  position="250,59" orientation="0,1" id="guide3656"></sodipodi:guide>
	</sodipodi:namedview>
	<g>
		<g id="g3" transform="matrix(0.704,0,0,0.704,82.031837,57.501661)">
			<g id="g7">
				<path id="path9" inkscape:connector-curvature="0" d="M593.997-397.295c-5.45,0-9.852-3.698-9.852-8.269v-14.002
					c0-4.559-4.424-8.259-9.884-8.259c-5.456,0-9.868,3.398-9.868,7.968v14.293c0,4.565-4.419,8.269-9.872,8.269
					c-5.453,0-9.867-3.698-9.867-8.269v-14.002c0-4.554-4.42-8.259-9.885-8.259c-5.445,0-9.867,3.41-9.867,7.968v14.293
					c0,4.565-4.426,8.258-9.875,8.258c-5.443,0-9.87-3.688-9.87-8.258v-14.002c0-4.559-4.419-8.259-9.878-8.259
					c-5.453,0-9.872,3.398-9.872,7.968v14.293c0,4.565-4.418,8.269-9.871,8.269c-5.452,0-9.874-3.698-9.874-8.269v-14.002
					c0-4.554-4.424-8.259-9.867-8.259h-79.136c-5.46,0-9.879,3.7-9.879,8.259v14.002c0,4.565-4.406,8.269-9.866,8.269
					c-5.454,0-9.87-3.698-9.87-8.269v-14.002c0-4.554-4.428-8.259-9.879-8.259c-5.46,0-9.884,3.7-9.884,8.259l-0.153,14.002
					c0,4.565-4.426,8.269-9.868,8.269c-5.457,0-9.872-3.698-9.872-8.269v-14.002c0-4.554-4.418-8.259-9.879-8.259
					c-5.46,0-9.87,3.7-9.87,8.259v14.002c0,4.565-4.422,8.269-9.877,8.269c-5.447,0-9.872-3.698-9.872-8.269v-14.002
					c0-4.554-4.417-8.259-9.871-8.259c-5.457,0-9.877,3.7-9.877,8.259l-0.155,14.002c0,4.565-4.419,8.269-9.863,8.269
					c-5.458,0-9.877-3.698-9.877-8.269v-14.002c0-4.554-4.419-8.259-9.874-8.259c-5.454,0-9.872,3.7-9.872,8.259v14.002
					c0,4.565-4.424,8.269-9.871,8.269l-0.291,616.26c5.456,0,9.871,3.705,9.871,8.259v14.002c0,4.567,4.426,8.258,9.875,8.258
					c5.453,0,9.875-3.697,9.875-8.258v-14.002c0-4.565,4.415-8.259,9.868-8.259c5.449,0,9.867,3.705,9.867,8.259l0.164,14.002
					c0,4.567,4.407,8.258,9.866,8.258c5.463,0,9.882-3.697,9.882-8.258v-14.002c0-4.565,4.418-8.259,9.863-8.259
					c5.457,0,9.877,3.705,9.877,8.259v14.002c0,4.567,4.417,8.258,9.87,8.258c5.458,0,9.875-3.697,9.875-8.258v-14.002
					c0-4.565,4.421-8.259,9.874-8.259c5.447,0,9.871,3.705,9.871,8.259l0.154,14.002c0,4.567,4.419,8.258,9.878,8.258
					c5.453,0,9.878-3.697,9.878-8.258v-14.002c0-4.565,4.415-8.259,9.87-8.259c5.449,0,9.872,3.705,9.872,8.259v14.002
					c0,4.567,4.408,8.258,9.865,8.258h79.135c5.452,0,9.871-3.697,9.871-8.258v-14.002c0-4.565,4.421-8.259,9.874-8.259
					c5.454,0,9.879,3.705,9.879,8.259v14.293c0,4.569,4.41,7.966,9.867,7.966c5.461,0,9.886-3.697,9.886-8.258v-14.002
					c0-4.565,4.418-8.259,9.866-8.259c5.453,0,9.878,3.705,9.878,8.259v14.293c0,4.569,4.417,7.966,9.875,7.966
					c5.454,0,9.877-3.697,9.877-8.258v-14.002c0-4.565,4.42-8.259,9.87-8.259c5.453,0,9.872,3.705,9.872,8.259v14.293
					c0,4.569,4.408,7.966,9.868,7.966c5.47,0,9.885-3.697,9.885-8.258v-14.002c0-4.565,4.425-8.259,9.872-8.259
					c5.452,0,9.867,3.705,9.867,8.259v14.002c0,4.567,4.425,8.258,9.872,8.258c5.46,0,9.885-3.697,9.885-8.258v-14.002
					c0-4.565,4.408-8.259,9.87-8.259l0.248-616.26c-5.454,0-9.871-3.701-9.871-8.263v-14.003c0-4.563-4.418-8.257-9.882-8.257
					c-5.453,0-9.872,3.704-9.872,8.257v14.003C603.851-400.99,599.448-397.295,593.997-397.295z"/>
			</g>
		</g>
		<rect id="rect4274" x="206.287" y="-75.526" fill="#333333" width="45.703" height="136.59"/>
		
			<rect id="rect11" x="360.891" y="-238.307" fill="#858688" stroke="#858688" stroke-width="1.3509" stroke-linejoin="round" stroke-miterlimit="10" width="26.427" height="10.423"/>
		
			<rect id="rect13" x="438.95" y="73.694" fill="#858688" stroke="#858688" stroke-width="1.4737" stroke-linejoin="round" stroke-miterlimit="10" width="89.315" height="70.928"/>
		<g id="g37" transform="matrix(0.704,0,0,0.704,82.031837,57.501661)">
			<rect id="rect39" x="425.132" y="147.305" fill="#E7AB22" width="9.523" height="12.695"/>
			<rect id="rect41" x="394.505" y="147.305" fill="#E7AB22" width="9.519" height="12.695"/>
		</g>
		
			<path id="path43" inkscape:connector-curvature="0" fill="#F9F5D2" stroke="#858688" stroke-width="1.4737" stroke-linejoin="round" stroke-miterlimit="10" d="
			M352.173,172.267v51.472v4.723c0,2.27,3.48,3.777,4.93,3.777h12.954c1.009-0.869,2.322-1.391,3.772-1.391
			c1.441,0,2.753,0.521,3.771,1.391h12.89c1.442,0,4.931-1.508,4.931-3.777l0.214-5.066l-0.21-51.132
			c0-1.441-1.179-2.621-2.633-2.621h-37.989C353.369,169.642,352.173,170.82,352.173,172.267L352.173,172.267z"/>
		
			<rect id="rect45" x="392.135" y="19.662" transform="matrix(0.7071 -0.7071 0.7071 0.7071 92.8824 302.5349)" fill="#3D3D3D" width="38.977" height="38.978"/>
		<path id="path47" inkscape:connector-curvature="0" fill="#E7AB22" d="M342.901,10.635l0.519,0.524l-2.865,2.861l-0.523-0.521
			L342.901,10.635z M344.043,11.775l0.522,0.52l-2.866,2.87l-0.523-0.52L344.043,11.775z M345.182,12.917l0.523,0.519l-2.866,2.87
			l-0.523-0.519L345.182,12.917L345.182,12.917z M346.32,14.053l0.519,0.519l-2.87,2.87l-0.52-0.519L346.32,14.053z M347.46,15.194
			l0.519,0.519l-2.87,2.871l-0.52-0.519L347.46,15.194L347.46,15.194z M348.597,16.331l0.523,0.523l-2.875,2.866l-0.519-0.52
			L348.597,16.331z M349.737,17.472l0.523,0.52l-2.864,2.869l-0.522-0.519L349.737,17.472z M350.874,18.612l0.523,0.521
			l-2.861,2.864l-0.523-0.523L350.874,18.612L350.874,18.612z M352.02,19.753l0.52,0.521l-2.868,2.864l-0.521-0.519L352.02,19.753z
			 M353.159,20.894l0.518,0.521l-2.862,2.869l-0.521-0.524L353.159,20.894z M354.296,22.032l0.528,0.523l-2.876,2.869l-0.521-0.521
			L354.296,22.032z M355.44,23.173l0.522,0.521l-2.871,2.875l-0.521-0.523L355.44,23.173z M356.582,24.312l0.521,0.521l-2.868,2.87
			l-0.524-0.521L356.582,24.312z M357.719,25.455l0.523,0.521l-2.871,2.87l-0.524-0.523L357.719,25.455L357.719,25.455z
			 M358.86,26.589l0.519,0.521l-2.87,2.868l-0.519-0.521L358.86,26.589z M359.999,27.734l0.523,0.523l-2.869,2.866l-0.52-0.52
			L359.999,27.734z M361.14,28.871l0.52,0.523l-2.862,2.87l-0.522-0.519L361.14,28.871z M362.277,30.011l0.52,0.523l-2.865,2.867
			l-0.521-0.52L362.277,30.011z M363.417,31.147l0.52,0.524l-2.871,2.87l-0.522-0.523L363.417,31.147z M364.555,32.284l0.518,0.524
			l-2.865,2.87l-0.522-0.523L364.555,32.284z M311.52,42.007l0.524,0.523l-2.869,2.864l-0.521-0.521L311.52,42.007z M312.662,43.149
			l0.523,0.522l-2.87,2.87l-0.521-0.521L312.662,43.149z M313.803,44.292l0.522,0.521l-2.868,2.873l-0.519-0.521L313.803,44.292z
			 M314.946,45.43l0.523,0.523l-2.867,2.871l-0.521-0.521L314.946,45.43z M316.087,46.571l0.517,0.517l-2.861,2.872l-0.522-0.523
			L316.087,46.571z M317.227,47.711l0.521,0.523l-2.868,2.862l-0.521-0.522L317.227,47.711z M318.363,48.852l0.524,0.52
			l-2.868,2.869l-0.523-0.523L318.363,48.852L318.363,48.852z M319.5,49.988l0.521,0.523l-2.867,2.866l-0.522-0.519L319.5,49.988z
			 M320.642,51.129l0.523,0.52l-2.869,2.866l-0.521-0.519L320.642,51.129z M321.788,52.265l0.522,0.524l-2.871,2.87l-0.521-0.522
			L321.788,52.265z M322.924,53.406l0.523,0.52l-2.871,2.87l-0.523-0.519L322.924,53.406z M324.064,54.549l0.525,0.521l-2.867,2.871
			l-0.524-0.524L324.064,54.549z M325.202,55.69l0.523,0.521l-2.871,2.867l-0.519-0.52L325.202,55.69L325.202,55.69z
			 M326.347,56.829l0.522,0.524L324,60.222l-0.521-0.521L326.347,56.829z M327.478,57.965l0.524,0.524l-2.871,2.865l-0.519-0.523
			L327.478,57.965L327.478,57.965z M328.624,59.11l0.519,0.521l-2.869,2.869l-0.524-0.521L328.624,59.11z M329.76,60.247
			l0.519,0.521l-2.859,2.867l-0.523-0.521L329.76,60.247L329.76,60.247z M330.897,61.387l0.522,0.521l-2.867,2.869l-0.523-0.523
			L330.897,61.387z M332.044,62.526l0.517,0.521l-2.861,2.871l-0.522-0.523L332.044,62.526z M333.18,63.665l0.523,0.523
			l-2.873,2.866l-0.52-0.521L333.18,63.665z M364.788,44.806l-0.522,0.521l-2.868-2.87l0.524-0.519L364.788,44.806z M363.647,45.946
			l-0.524,0.523l-2.865-2.868l0.523-0.519L363.647,45.946z M362.506,47.088l-0.522,0.518l-2.86-2.859l0.521-0.52L362.506,47.088
			L362.506,47.088z M361.365,48.226l-0.521,0.52l-2.866-2.863l0.523-0.522L361.365,48.226L361.365,48.226z M360.227,49.372
			l-0.524,0.519l-2.863-2.866l0.521-0.524L360.227,49.372L360.227,49.372z M359.082,50.508l-0.517,0.523l-2.87-2.87l0.523-0.52
			L359.082,50.508z M357.944,51.644l-0.518,0.523l-2.869-2.87l0.521-0.524L357.944,51.644z M356.807,52.785l-0.524,0.519
			l-2.861-2.866l0.521-0.523L356.807,52.785z M355.665,53.922l-0.522,0.523l-2.863-2.875l0.522-0.519L355.665,53.922z
			 M354.521,55.062l-0.52,0.524l-2.866-2.864l0.523-0.521L354.521,55.062L354.521,55.062z M353.384,56.203l-0.519,0.523l-2.871-2.87
			l0.521-0.521L353.384,56.203L353.384,56.203z M352.251,57.346l-0.523,0.521l-2.865-2.864l0.522-0.524L352.251,57.346z
			 M351.107,58.482l-0.52,0.521l-2.866-2.866l0.524-0.518L351.107,58.482z M349.97,59.625l-0.522,0.521l-2.865-2.87l0.521-0.523
			L349.97,59.625z M348.831,60.764l-0.524,0.521l-2.861-2.863l0.523-0.521L348.831,60.764z M347.689,61.902l-0.519,0.523
			l-2.872-2.868l0.524-0.523L347.689,61.902z M346.55,63.045l-0.523,0.521l-2.864-2.858l0.52-0.523L346.55,63.045L346.55,63.045z
			 M345.41,64.18l-0.524,0.523l-2.866-2.861l0.523-0.523L345.41,64.18z M344.268,65.325l-0.521,0.519l-2.867-2.866l0.521-0.523
			L344.268,65.325z M343.131,66.465l-0.523,0.519l-2.869-2.861l0.521-0.523L343.131,66.465L343.131,66.465z M333.554,13.577
			l-0.521,0.522l-2.868-2.864l0.519-0.523L333.554,13.577L333.554,13.577z M332.416,14.718l-0.521,0.521l-2.863-2.868l0.52-0.518
			L332.416,14.718z M331.276,15.856l-0.52,0.521l-2.868-2.863l0.521-0.521L331.276,15.856z M330.136,16.995l-0.521,0.523
			l-2.866-2.86l0.522-0.523L330.136,16.995z M328.994,18.139l-0.519,0.519l-2.868-2.866l0.521-0.52L328.994,18.139z M327.858,19.279
			l-0.524,0.52l-2.867-2.863l0.522-0.522L327.858,19.279L327.858,19.279z M326.714,20.419l-0.523,0.52l-2.864-2.867l0.523-0.519
			L326.714,20.419z M325.577,21.552l-0.521,0.52l-2.869-2.871l0.522-0.52L325.577,21.552z M324.433,22.693l-0.524,0.519
			l-2.862-2.866l0.521-0.523L324.433,22.693z M323.291,23.833l-0.519,0.52l-2.871-2.864l0.524-0.523L323.291,23.833L323.291,23.833z
			 M322.16,24.97l-0.519,0.523l-2.872-2.862l0.524-0.523L322.16,24.97z M321.019,26.114l-0.521,0.522l-2.865-2.866l0.521-0.521
			L321.019,26.114z M319.882,27.256l-0.524,0.521l-2.861-2.867l0.52-0.521L319.882,27.256L319.882,27.256z M318.742,28.395
			l-0.524,0.521l-2.865-2.868l0.519-0.522L318.742,28.395z M317.601,29.535l-0.523,0.521l-2.866-2.866l0.523-0.521L317.601,29.535z
			 M316.457,30.675l-0.521,0.521l-2.863-2.866l0.52-0.521L316.457,30.675z M315.319,31.814l-0.521,0.521l-2.864-2.869l0.52-0.519
			L315.319,31.814z M314.18,32.953l-0.521,0.522l-2.868-2.858l0.521-0.523L314.18,32.953L314.18,32.953z M313.04,34.095
			l-0.521,0.518l-2.868-2.868l0.522-0.519L313.04,34.095z M311.898,35.232l-0.52,0.523l-2.869-2.87l0.521-0.52L311.898,35.232z
			 M365.159,38.822l-28.491,28.496l-28.492-28.492l28.492-28.489L365.159,38.822z"/>
		
			<line id="line49" fill="none" stroke="#BBBDBF" stroke-width="1.0444" stroke-linejoin="round" stroke-miterlimit="10" x1="373.545" y1="228.514" x2="373.545" y2="202.115"/>
		
			<ellipse id="ellipse51" sodipodi:cx="47.450001" sodipodi:ry="5.7010002" sodipodi:rx="1.919" sodipodi:cy="155.386" cx="384.747" cy="229.192" rx="8.402" ry="2.828">
		</ellipse>
		
			<ellipse id="ellipse53" sodipodi:cx="47.450001" sodipodi:ry="5.7010002" sodipodi:rx="1.919" sodipodi:cy="140.563" cx="362.907" cy="229.192" rx="8.402" ry="2.828">
		</ellipse>
		<rect id="rect55" x="365.421" y="121.886" fill="#E7AB22" width="17.501" height="7.834"/>
		<rect id="rect57" x="367.987" y="121.914" fill="#83C341" width="12.371" height="7.83"/>
		
			<rect id="rect59" x="404.663" y="174.998" fill="#858688" stroke="#858688" stroke-width="1.4737" stroke-linejoin="round" stroke-miterlimit="10" width="35.462" height="32.579"/>
		
			<path id="path61" inkscape:connector-curvature="0" fill="#F9F5D2" stroke="#858688" stroke-width="1.4737" stroke-linejoin="round" stroke-miterlimit="10" d="
			M430.608,191.291c0,4.539-3.676,8.211-8.21,8.211c-4.539,0-8.219-3.672-8.219-8.211c0-4.538,3.68-8.223,8.219-8.223
			C426.932,183.068,430.608,186.752,430.608,191.291"/>
		<g id="g63" transform="matrix(0.704,0,0,0.704,82.031837,57.501661)">
			
				<rect id="rect65" x="322.419" y="166.634" fill="#858688" stroke="#858688" stroke-width="2.0934" stroke-linejoin="round" stroke-miterlimit="10" width="50.375" height="46.272"/>
			
				<path id="path67" inkscape:connector-curvature="0" fill="#6D6E70" stroke="#6D6E70" stroke-width="1.4836" stroke-linejoin="round" stroke-miterlimit="10" d="
				M359.274,189.766c0,6.449-5.213,11.666-11.662,11.666c-6.446,0-11.67-5.224-11.67-11.666s5.227-11.67,11.67-11.67
				C354.047,178.096,359.274,183.324,359.274,189.766"/>
		</g>
		
			<path id="path69" inkscape:connector-curvature="0" fill="#F9F5D2" stroke="#858688" stroke-width="1.4737" stroke-linejoin="round" stroke-miterlimit="10" d="
			M334.968,191.099c0,4.538-3.68,8.214-8.22,8.214c-4.536,0-8.212-3.676-8.212-8.214c0-4.537,3.676-8.22,8.212-8.22
			C331.289,182.881,334.968,186.562,334.968,191.099"/>
		
			<rect id="rect71" x="316.966" y="19.62" transform="matrix(0.7071 -0.7071 0.7071 0.7071 70.888 249.3599)" fill="#3D3D3D" stroke="#858688" stroke-width="1.4737" stroke-linejoin="round" stroke-miterlimit="10" width="38.979" height="38.977"/>
		<g id="g73" transform="matrix(0.704,0,0,0.704,82.031837,57.501661)">
			<rect id="rect75" x="428.795" y="25.132" fill="#E7AB22" width="7.689" height="3.234"/>
			<rect id="rect77" x="428.795" y="35.107" fill="#E7AB22" width="7.689" height="3.236"/>
			<rect id="rect79" x="428.795" y="45.08" fill="#E7AB22" width="7.689" height="3.238"/>
			<rect id="rect81" x="428.795" y="55.053" fill="#E7AB22" width="7.689" height="3.232"/>
			<rect id="rect83" x="390.45" y="25.132" fill="#E7AB22" width="7.683" height="3.234"/>
			<rect id="rect85" x="390.45" y="35.107" fill="#E7AB22" width="7.683" height="3.236"/>
			<rect id="rect87" x="390.45" y="45.08" fill="#E7AB22" width="7.683" height="3.238"/>
			<rect id="rect89" x="390.45" y="55.053" fill="#E7AB22" width="7.683" height="3.232"/>
		</g>
		
			<rect id="rect91" x="362.149" y="73.085" fill="#858688" stroke="#858688" stroke-width="1.4737" stroke-linejoin="round" stroke-miterlimit="10" width="21.873" height="27.375"/>
		<path id="path93" inkscape:connector-curvature="0" fill="#FFFFFF" d="M373.414,77.214c-1.602,0-2.898,1.265-2.898,2.824v9.552
			c-0.915,0.79-1.451,1.935-1.451,3.136c0,2.326,1.955,4.23,4.35,4.23c2.4,0,4.354-1.896,4.354-4.23
			c0-1.195-0.546-2.346-1.451-3.136v-9.552C376.317,78.484,375.018,77.214,373.414,77.214 M373.414,78.629
			c0.798,0,1.448,0.631,1.448,1.406v10.259c0.862,0.484,1.447,1.385,1.447,2.429c0,1.562-1.294,2.821-2.905,2.821
			c-1.604,0-2.9-1.264-2.9-2.821c0-1.044,0.585-1.942,1.442-2.429V80.036C371.962,79.259,372.613,78.629,373.414,78.629"/>
		<path id="path95" inkscape:connector-curvature="0" fill="#E6E7E8" d="M376.313,89.586v-9.551c0-1.556-1.295-2.826-2.901-2.826
			c-1.6,0-2.898,1.264-2.898,2.826v9.551c-0.913,0.789-1.449,1.934-1.449,3.137c0,2.327,1.95,4.231,4.348,4.231
			c2.398,0,4.354-1.896,4.354-4.231C377.766,91.52,377.222,90.375,376.313,89.586L376.313,89.586z M373.414,95.544
			c-1.605,0-2.898-1.26-2.898-2.821c0-1.044,0.581-1.942,1.444-2.425v-1.774h0.978v-0.636h-0.978v-1.262h0.978v-0.634h-0.978v-1.259
			h0.978v-0.626h-0.978V82.92h0.978v-0.622h-0.978v-1.22h0.978v-0.622h-0.978v-0.431c0-0.779,0.649-1.408,1.444-1.408
			c0.796,0,1.451,0.628,1.451,1.408v10.257c0.861,0.484,1.441,1.385,1.441,2.428C376.313,94.289,375.018,95.544,373.414,95.544
			L373.414,95.544z"/>
		
			<rect id="rect97" x="479.521" y="163.713" fill="#858688" stroke="#858688" stroke-width="1.4737" stroke-linejoin="round" stroke-miterlimit="10" width="48.938" height="38.159"/>
		<g id="g99" transform="matrix(0.704,0,0,0.704,82.031837,57.501661)">
			
				<polyline id="polyline101" fill="#858688" stroke="#F9F5D2" stroke-width="1.4836" stroke-linejoin="round" stroke-miterlimit="10" points="
				590.622,176.1 590.552,184.343 633.761,190.213 			"/>
			
				<polyline id="polyline103" fill="#858688" stroke="#F9F5D2" stroke-width="1.4836" stroke-linejoin="round" stroke-miterlimit="10" points="
				590.622,182.878 590.552,171.582 633.761,165.735 			"/>
		</g>
		
			<rect id="rect105" x="365.936" y="-13.355" fill="#6D6E70" stroke="#6D6E70" stroke-width="0.7519" stroke-linejoin="round" stroke-miterlimit="10" width="16.175" height="16.165"/>
		
			<rect id="rect107" x="273.567" y="-183.254" fill="#767878" stroke="#767878" stroke-width="1.4737" stroke-linejoin="round" stroke-miterlimit="10" width="204.71" height="150.268"/>
		<g id="g109" transform="matrix(0.704,0,0,0.704,82.031837,57.501661)">
			<polygon id="polygon111" fill="#F9F5D2" points="336.738,-256.129 336.738,-214.474 338.655,-212.552 358.525,-212.552 
				378.394,-212.552 380.313,-214.474 380.313,-256.129 376.465,-256.129 376.465,-216.4 360.444,-216.4 360.444,-234.341 
				356.596,-234.341 356.596,-216.4 340.579,-216.4 340.579,-256.129 			"/>
			<polygon id="polygon113" fill="#F9F5D2" points="393.614,-232.419 411.556,-232.419 411.556,-236.264 393.614,-236.264 
				393.614,-252.288 431.42,-252.288 431.42,-256.129 391.686,-256.129 389.77,-254.209 389.77,-234.341 389.77,-214.48 
				391.686,-212.552 431.42,-212.552 431.42,-216.4 393.614,-216.4 			"/>
			<rect id="rect115" x="440.608" y="-256.123" fill="#F9F5D2" width="3.844" height="43.571"/>
			<path id="path117" inkscape:connector-curvature="0" fill="#F9F5D2" d="M493.726-216.4H457.84v-35.888h35.886V-216.4z
				 M495.654-256.129h-39.737l-1.92,1.925v39.73l1.92,1.928h39.737l1.911-1.928v-39.73L495.654-256.129z"/>
		</g>
		
			<rect id="rect119" x="271.629" y="-214.417" fill="#858688" stroke="#858688" stroke-width="1.4737" stroke-linejoin="round" stroke-miterlimit="10" width="10.826" height="6.726"/>
		<rect id="rect121" x="273.218" y="-214.396" fill="#FFFFFF" width="7.647" height="6.718"/>
		
			<rect id="rect123" x="467.729" y="-214.677" fill="#858688" stroke="#858688" stroke-width="1.4737" stroke-linejoin="round" stroke-miterlimit="10" width="10.827" height="6.725"/>
		<rect id="rect125" x="469.32" y="-214.658" fill="#FFFFFF" width="7.635" height="6.718"/>
		<rect id="rect127" x="364.186" y="-238.818" fill="#FFFFFF" width="19.898" height="11.439"/>
		
			<rect id="rect129" x="364.186" y="-238.818" fill="none" stroke="#454548" stroke-width="0.1223" stroke-miterlimit="10" width="19.898" height="11.439"/>
		<rect id="rect131" x="378.249" y="-237.443" fill="#454548" width="3.854" height="3.854"/>
		<g id="g207" transform="matrix(0.704,0,0,0.704,82.031837,57.501661)">
			
				<polyline id="polyline209" fill="#858688" stroke="#F9F5D2" stroke-width="1.4836" stroke-linejoin="round" stroke-miterlimit="10" points="
				580.899,85.707 625.983,90.955 625.983,100.397 581.951,106.168 			"/>
			
				<polyline id="polyline211" fill="#858688" stroke="#F9F5D2" stroke-width="1.4836" stroke-linejoin="round" stroke-miterlimit="10" points="
				580.899,40.583 625.983,45.827 625.983,55.273 581.951,61.049 			"/>
		</g>
		
			<path id="path219" inkscape:connector-curvature="0" fill="#858688" stroke="#858688" stroke-width="1.4737" stroke-linejoin="round" stroke-miterlimit="10" d="
			M230.313,132.587h56.677v73.498h-56.677v-2.225h-8.591v-6.049c0,0,8.685-14.484,8.917-25.696
			c0.313-15.946-8.917-30.946-8.917-30.946v-7.005l8.591,0.317V132.587z"/>
		<g id="g221" transform="matrix(0.704,0,0,0.704,82.031837,57.501661)">
			<g id="g223">
				<g id="g225">
					<path id="path227" inkscape:connector-curvature="0" fill="#FFFFFF" d="M328.831,128.72l3.572,13.498h-2.835l-0.627-2.849
						h-3.591l-0.624,2.849h-2.835l3.576-13.498H328.831z M328.469,137.137l-1.3-6.07h-0.04l-1.307,6.07H328.469z"/>
					<path id="path229" inkscape:connector-curvature="0" fill="#FFFFFF" d="M338.114,128.72c0.692,0,1.273,0.119,1.749,0.347
						c0.472,0.233,0.846,0.541,1.139,0.918c0.29,0.377,0.499,0.813,0.628,1.293c0.128,0.49,0.187,0.984,0.187,1.487
						c0,0.694-0.107,1.296-0.311,1.813c-0.205,0.517-0.492,0.942-0.868,1.261c-0.366,0.33-0.824,0.58-1.348,0.742
						c-0.534,0.169-1.121,0.251-1.764,0.251h-1.455v5.384h-2.724v-13.499h4.768V128.72z M337.28,134.832
						c0.544,0,0.982-0.166,1.316-0.488c0.33-0.323,0.501-0.839,0.501-1.531c0-0.682-0.144-1.199-0.436-1.551
						c-0.291-0.354-0.781-0.529-1.458-0.529h-1.133v4.107L337.28,134.832L337.28,134.832z"/>
				</g>
				<g id="g231">
					<path id="path233" inkscape:connector-curvature="0" fill="#FFFFFF" d="M326.937,147.629l1.93,9.534h0.037l1.949-9.534h4.03
						v13.5h-2.494v-10.777h-0.043l-2.398,10.777h-2.122l-2.398-10.777h-0.035v10.777h-2.491v-13.5H326.937z"/>
					<path id="path235" inkscape:connector-curvature="0" fill="#FFFFFF" d="M336.686,151.553c0.087-0.864,0.297-1.606,0.621-2.222
						c0.316-0.621,0.785-1.101,1.387-1.445c0.608-0.347,1.42-0.522,2.436-0.522c1.022,0,1.837,0.175,2.439,0.522
						c0.605,0.344,1.068,0.824,1.389,1.445c0.323,0.616,0.53,1.35,0.63,2.222c0.09,0.861,0.14,1.806,0.14,2.827
						c0,1.033-0.046,1.977-0.14,2.834c-0.097,0.856-0.307,1.597-0.63,2.213c-0.32,0.621-0.784,1.096-1.389,1.423
						c-0.605,0.325-1.416,0.488-2.439,0.488c-1.015,0-1.828-0.166-2.436-0.488c-0.606-0.327-1.065-0.802-1.387-1.423
						c-0.325-0.616-0.534-1.35-0.621-2.213c-0.094-0.857-0.144-1.801-0.144-2.834C336.538,153.359,336.592,152.414,336.686,151.553z
						 M339.33,156.691c0.046,0.637,0.135,1.154,0.268,1.551c0.126,0.395,0.315,0.682,0.563,0.871
						c0.243,0.18,0.565,0.276,0.977,0.276c0.4,0,0.73-0.09,0.968-0.276c0.25-0.183,0.437-0.48,0.576-0.871
						c0.123-0.397,0.215-0.914,0.261-1.551c0.047-0.633,0.065-1.407,0.065-2.317c0-0.91-0.018-1.673-0.065-2.305
						c-0.046-0.63-0.126-1.147-0.261-1.545c-0.128-0.397-0.323-0.702-0.576-0.885c-0.243-0.187-0.555-0.272-0.968-0.272
						c-0.401,0-0.734,0.09-0.977,0.272c-0.248,0.183-0.433,0.483-0.563,0.885c-0.133,0.398-0.222,0.916-0.268,1.545
						c-0.043,0.63-0.067,1.402-0.067,2.305C339.265,155.284,339.285,156.058,339.33,156.691z"/>
					<path id="path237" inkscape:connector-curvature="0" fill="#FFFFFF" d="M351.93,147.629c0.947,0,1.703,0.157,2.289,0.465
						c0.578,0.308,1.028,0.749,1.351,1.326c0.322,0.569,0.538,1.269,0.653,2.07c0.112,0.807,0.171,1.703,0.171,2.702
						c0,1.185-0.075,2.219-0.218,3.096c-0.141,0.879-0.395,1.598-0.743,2.158c-0.345,0.574-0.831,0.996-1.422,1.271
						s-1.341,0.412-2.253,0.412h-4.289v-13.5H351.93z M351.406,159.124c0.481,0,0.86-0.08,1.156-0.246
						c0.29-0.166,0.522-0.437,0.691-0.814c0.168-0.377,0.283-0.877,0.336-1.493c0.06-0.616,0.087-1.387,0.087-2.305
						c0-0.766-0.022-1.44-0.072-2.025c-0.051-0.577-0.155-1.057-0.311-1.441c-0.155-0.383-0.394-0.673-0.698-0.87
						c-0.307-0.197-0.72-0.291-1.236-0.291h-1.161v9.494h1.208V159.124L351.406,159.124z"/>
					<path id="path239" inkscape:connector-curvature="0" fill="#FFFFFF" d="M365.732,149.86h-4.82v3.175h4.536v2.229h-4.536v3.63
						h5.012v2.236h-7.729V147.63h7.543v2.228L365.732,149.86L365.732,149.86z"/>
				</g>
			</g>
		</g>
		<g id="g241" transform="matrix(0.704,0,0,0.704,82.031837,57.501661)">
			<g id="g243">
				<path id="path245" inkscape:connector-curvature="0" fill="#FFFFFF" d="M461.284,137.157c0,0.313,0.022,0.602,0.076,0.863
					c0.046,0.255,0.143,0.473,0.283,0.652c0.133,0.172,0.326,0.308,0.563,0.413c0.233,0.105,0.524,0.148,0.877,0.148
					c0.412,0,0.792-0.133,1.129-0.404c0.33-0.271,0.498-0.691,0.498-1.26c0-0.308-0.046-0.57-0.128-0.788
					c-0.082-0.216-0.216-0.412-0.408-0.591c-0.186-0.178-0.434-0.338-0.742-0.483c-0.295-0.141-0.678-0.291-1.144-0.443
					c-0.603-0.201-1.128-0.423-1.569-0.659c-0.438-0.241-0.811-0.516-1.101-0.839c-0.291-0.322-0.519-0.692-0.651-1.119
					c-0.133-0.418-0.209-0.91-0.209-1.468c0-1.336,0.372-2.322,1.108-2.985c0.746-0.652,1.77-0.988,3.066-0.988
					c0.603,0,1.164,0.067,1.673,0.205c0.512,0.132,0.953,0.341,1.325,0.642c0.377,0.297,0.663,0.667,0.873,1.133
					c0.207,0.458,0.307,1.007,0.307,1.654v0.38h-2.608c0-0.645-0.117-1.14-0.338-1.487c-0.226-0.344-0.606-0.523-1.131-0.523
					c-0.309,0-0.558,0.04-0.762,0.126c-0.191,0.094-0.359,0.211-0.47,0.35c-0.122,0.144-0.204,0.314-0.251,0.505
					c-0.036,0.186-0.061,0.384-0.061,0.583c0,0.411,0.087,0.763,0.261,1.049c0.18,0.286,0.552,0.547,1.133,0.785l2.095,0.911
					c0.517,0.226,0.942,0.465,1.273,0.709c0.319,0.244,0.58,0.51,0.784,0.796c0.196,0.284,0.33,0.591,0.406,0.935
					c0.078,0.343,0.11,0.72,0.11,1.132c0,1.429-0.413,2.468-1.239,3.107c-0.825,0.649-1.963,0.974-3.442,0.974
					c-1.537,0-2.64-0.336-3.297-1.003c-0.663-0.662-0.992-1.626-0.992-2.871v-0.556h2.72L461.284,137.157L461.284,137.157z"/>
				<path id="path247" inkscape:connector-curvature="0" fill="#FFFFFF" d="M468.765,131.397c0.096-0.864,0.301-1.606,0.621-2.219
					c0.32-0.616,0.785-1.096,1.387-1.447c0.605-0.345,1.416-0.52,2.439-0.52c1.018,0,1.837,0.175,2.44,0.52
					c0.603,0.345,1.064,0.831,1.387,1.447c0.313,0.613,0.523,1.352,0.624,2.219c0.096,0.864,0.137,1.809,0.137,2.83
					c0,1.035-0.042,1.978-0.137,2.834c-0.101,0.857-0.311,1.597-0.624,2.213c-0.323,0.621-0.791,1.093-1.387,1.418
					c-0.61,0.332-1.425,0.494-2.44,0.494c-1.022,0-1.834-0.166-2.439-0.494c-0.605-0.322-1.07-0.796-1.387-1.418
					c-0.32-0.616-0.526-1.35-0.621-2.213c-0.101-0.856-0.147-1.799-0.147-2.834C468.618,133.206,468.664,132.262,468.765,131.397z
					 M471.412,136.535c0.043,0.641,0.129,1.157,0.262,1.554c0.126,0.394,0.315,0.682,0.569,0.871
					c0.244,0.18,0.567,0.269,0.975,0.269s0.727-0.089,0.975-0.269c0.247-0.183,0.436-0.477,0.572-0.871
					c0.128-0.397,0.214-0.913,0.261-1.554c0.046-0.63,0.06-1.402,0.06-2.317c0-0.907-0.019-1.673-0.06-2.303
					c-0.047-0.633-0.128-1.151-0.261-1.551c-0.136-0.398-0.325-0.701-0.572-0.886c-0.248-0.179-0.567-0.266-0.975-0.266
					c-0.405,0-0.731,0.087-0.975,0.266c-0.248,0.186-0.436,0.481-0.569,0.886c-0.128,0.397-0.219,0.913-0.262,1.551
					c-0.046,0.63-0.068,1.401-0.068,2.303C471.344,135.133,471.36,135.906,471.412,136.535z"/>
				<path id="path249" inkscape:connector-curvature="0" fill="#FFFFFF" d="M486.959,127.474v2.228h-4.825v3.179h4.539v2.231h-4.539
					v5.862h-2.72v-13.5H486.959L486.959,127.474z"/>
			</g>
			<g id="g251">
				<path id="path253" inkscape:connector-curvature="0" fill="#FFFFFF" d="M496.094,129.708h-2.946v11.267h-2.724v-11.267h-2.951
					v-2.226h8.621V129.708z"/>
			</g>
			<g id="g255">
				<path id="path257" inkscape:connector-curvature="0" fill="#FFFFFF" d="M464.117,146.381c1.14,0,2.018,0.289,2.656,0.863
					c0.627,0.572,0.939,1.441,0.939,2.616c0,0.91-0.189,1.645-0.556,2.222c-0.366,0.572-0.931,0.942-1.696,1.103v0.046
					c0.685,0.097,1.179,0.315,1.493,0.655c0.319,0.344,0.51,0.885,0.581,1.645c0.028,0.251,0.046,0.527,0.057,0.825
					c0.018,0.297,0.024,0.631,0.04,0.995c0.025,0.719,0.067,1.265,0.114,1.642c0.076,0.381,0.239,0.642,0.487,0.773v0.11h-2.948
					c-0.135-0.186-0.226-0.397-0.268-0.649c-0.042-0.25-0.068-0.502-0.076-0.767l-0.075-2.584c-0.025-0.533-0.151-0.946-0.388-1.254
					c-0.247-0.308-0.645-0.461-1.208-0.461h-1.45v5.715h-2.724v-13.492L464.117,146.381L464.117,146.381z M462.945,152.281
					c0.658,0,1.161-0.151,1.518-0.467c0.352-0.305,0.526-0.824,0.526-1.556c0-1.25-0.631-1.877-1.888-1.877h-1.297v3.891
					L462.945,152.281L462.945,152.281L462.945,152.281z"/>
				<path id="path259" inkscape:connector-curvature="0" fill="#FFFFFF" d="M477.144,148.612h-4.82v3.178h4.536v2.226h-4.536v3.63
					h5.013v2.229h-7.735v-13.5h7.548L477.144,148.612L477.144,148.612z"/>
				<path id="path261" inkscape:connector-curvature="0" fill="#FFFFFF" d="M480.892,156.064c0,0.308,0.022,0.602,0.074,0.863
					c0.049,0.255,0.14,0.477,0.286,0.652c0.133,0.178,0.322,0.311,0.556,0.411c0.232,0.105,0.524,0.15,0.878,0.15
					c0.411,0,0.795-0.133,1.126-0.4c0.333-0.272,0.499-0.691,0.499-1.261c0-0.307-0.042-0.567-0.129-0.789
					c-0.081-0.214-0.214-0.413-0.4-0.592c-0.197-0.176-0.441-0.337-0.742-0.47c-0.308-0.144-0.691-0.297-1.144-0.449
					c-0.61-0.204-1.133-0.422-1.57-0.663c-0.447-0.232-0.813-0.516-1.101-0.83c-0.297-0.322-0.517-0.701-0.657-1.115
					c-0.14-0.43-0.208-0.916-0.208-1.473c0-1.332,0.379-2.322,1.119-2.985c0.745-0.655,1.767-0.986,3.061-0.986
					c0.605,0,1.162,0.069,1.674,0.201c0.504,0.128,0.952,0.341,1.323,0.644c0.379,0.302,0.656,0.677,0.871,1.132
					c0.208,0.467,0.307,1.01,0.307,1.655v0.379h-2.608c0-0.645-0.119-1.139-0.343-1.487c-0.221-0.344-0.602-0.517-1.138-0.517
					c-0.308,0-0.551,0.046-0.749,0.129c-0.197,0.089-0.359,0.205-0.481,0.344c-0.117,0.146-0.205,0.313-0.246,0.502
					c-0.039,0.196-0.069,0.386-0.069,0.585c0,0.413,0.094,0.766,0.275,1.05c0.165,0.287,0.551,0.548,1.131,0.787l2.097,0.916
					c0.516,0.218,0.942,0.463,1.258,0.705c0.327,0.247,0.588,0.508,0.793,0.793c0.19,0.289,0.332,0.598,0.4,0.938
					c0.075,0.338,0.112,0.717,0.112,1.132c0,1.426-0.411,2.464-1.235,3.107c-0.825,0.653-1.97,0.974-3.44,0.974
					c-1.537,0-2.638-0.338-3.304-1.006c-0.653-0.667-0.993-1.619-0.993-2.873v-0.547h2.722v0.394h-0.006V156.064L480.892,156.064
					L480.892,156.064z"/>
				<path id="path263" inkscape:connector-curvature="0" fill="#FFFFFF" d="M496.049,148.612h-4.823v3.178h4.537v2.226h-4.537v3.63
					h5.02v2.229h-7.735v-13.5h7.543L496.049,148.612L496.049,148.612z"/>
				<path id="path265" inkscape:connector-curvature="0" fill="#FFFFFF" d="M505.508,148.612h-2.955v11.269h-2.717v-11.269h-2.951
					v-2.228h8.617v2.228H505.508z"/>
			</g>
		</g>
		<g id="g267" transform="matrix(0.704,0,0,0.704,82.031837,57.501661)">
			<g id="g269">
				<g id="g271">
					<path id="path273" inkscape:connector-curvature="0" fill="#FFFFFF" d="M506.31-378.867c0,0.312,0.031,0.602,0.078,0.859
						c0.04,0.263,0.137,0.478,0.283,0.658c0.135,0.18,0.32,0.313,0.558,0.411c0.234,0.105,0.529,0.148,0.882,0.148
						c0.413,0,0.785-0.128,1.122-0.398c0.336-0.269,0.505-0.691,0.505-1.26c0-0.308-0.047-0.569-0.128-0.79
						c-0.08-0.215-0.222-0.413-0.406-0.592c-0.198-0.165-0.438-0.338-0.744-0.471c-0.309-0.145-0.692-0.298-1.146-0.447
						c-0.61-0.2-1.125-0.424-1.568-0.658c-0.44-0.243-0.813-0.515-1.101-0.841c-0.302-0.313-0.517-0.692-0.657-1.11
						c-0.14-0.43-0.208-0.917-0.208-1.469c0-1.337,0.37-2.323,1.114-2.987c0.744-0.66,1.765-0.992,3.06-0.992
						c0.606,0,1.164,0.069,1.673,0.203c0.51,0.139,0.953,0.349,1.329,0.644c0.373,0.297,0.656,0.669,0.866,1.133
						c0.209,0.465,0.309,1.018,0.309,1.662v0.371h-2.616c0-0.643-0.114-1.133-0.341-1.477c-0.221-0.347-0.61-0.519-1.132-0.519
						c-0.309,0-0.558,0.039-0.762,0.129c-0.19,0.087-0.359,0.207-0.469,0.343c-0.122,0.144-0.204,0.311-0.25,0.506
						c-0.04,0.185-0.065,0.383-0.065,0.578c0,0.42,0.089,0.766,0.269,1.05c0.178,0.285,0.555,0.547,1.13,0.788l2.103,0.911
						c0.522,0.226,0.936,0.465,1.26,0.708c0.32,0.238,0.587,0.51,0.791,0.786c0.191,0.295,0.327,0.608,0.401,0.943
						c0.076,0.336,0.117,0.72,0.117,1.131c0,1.424-0.412,2.462-1.237,3.108c-0.831,0.651-1.974,0.97-3.455,0.97
						c-1.533,0-2.637-0.325-3.3-1.005c-0.656-0.665-0.986-1.62-0.986-2.869v-0.557h2.723V-378.867L506.31-378.867L506.31-378.867z"
						/>
					<path id="path275" inkscape:connector-curvature="0" fill="#FFFFFF" d="M521.83-386.317h-2.949v11.272h-2.724v-11.272h-2.945
						v-2.229h8.618V-386.317L521.83-386.317z"/>
				</g>
				<g id="g277">
					<path id="path279" inkscape:connector-curvature="0" fill="#FFFFFF" d="M527.957-388.547l3.572,13.496h-2.834l-0.634-2.853
						h-3.589l-0.631,2.853h-2.835l3.575-13.496H527.957L527.957-388.547z M527.597-380.139l-1.307-6.069h-0.036l-1.308,6.069
						H527.597L527.597-380.139z"/>
				</g>
			</g>
		</g>
		<g id="g281" transform="matrix(0.704,0,0,0.704,82.031837,57.501661)">
			<g id="g283">
				<path id="path285" inkscape:connector-curvature="0" fill="#FFFFFF" d="M303.088-388.966l3.575,13.49h-2.835l-0.626-2.845
					h-3.593l-0.63,2.845h-2.834l3.572-13.49H303.088z M302.737-380.551l-1.307-6.069h-0.04l-1.307,6.069H302.737z"/>
				<path id="path287" inkscape:connector-curvature="0" fill="#FFFFFF" d="M312.374-388.966c0.698,0,1.279,0.11,1.749,0.342
					c0.472,0.232,0.852,0.54,1.14,0.918c0.291,0.378,0.492,0.814,0.621,1.29c0.129,0.482,0.193,0.987,0.193,1.486
					c0,0.698-0.107,1.301-0.313,1.812c-0.209,0.523-0.495,0.942-0.866,1.266c-0.377,0.326-0.828,0.569-1.354,0.745
					c-0.524,0.16-1.115,0.241-1.759,0.241h-1.457v5.385h-2.723v-13.497L312.374-388.966L312.374-388.966z M311.536-382.857
					c0.551,0,0.986-0.164,1.321-0.486c0.337-0.332,0.499-0.841,0.499-1.535c0-0.678-0.143-1.19-0.436-1.543
					c-0.289-0.352-0.773-0.524-1.452-0.524h-1.133v4.101L311.536-382.857L311.536-382.857z"/>
			</g>
		</g>
		<rect id="rect4276" x="206.287" y="-218.057" fill="#333333" width="45.672" height="136.598"/>
		<rect id="rect4280" x="499.36" y="-218.057" fill="#333333" width="46.054" height="136.422"/>
		<rect id="rect4278" x="499.36" y="-75.526" fill="#333333" width="46.054" height="136.59"/>
		<g id="g481" transform="matrix(0.704,0,0,0.704,82.031837,57.501661)">
			<path id="path483" inkscape:connector-curvature="0" fill="#FFFFFF" d="M390.798,132.757v-2.604h5.528v2.604H390.798z"/>
			<path id="path485" inkscape:connector-curvature="0" fill="#FFFFFF" d="M412.161,135.507c-0.524,0.523-1.436,1.028-2.783,1.028
				c-1.35,0-2.326-0.524-2.848-1.051c-0.863-0.86-0.977-1.837-1.05-2.716h2.763c0.089,0.798,0.424,1.265,1.129,1.265
				c0.343,0,0.562-0.083,0.777-0.308c0.254-0.257,0.355-0.691,0.355-1.401c0-1.334-0.458-1.701-1.132-1.701
				c-0.807,0-1.013,0.541-1.129,0.86h-2.547v-7.069h7.321v2.502h-4.808v1.853c0.233-0.183,0.877-0.47,1.615-0.47
				c1.042,0,1.835,0.343,2.33,0.839c0.974,0.977,1.106,2.056,1.106,3.179C413.274,133.783,413.061,134.61,412.161,135.507
				L412.161,135.507z"/>
			<path id="path487" inkscape:connector-curvature="0" fill="#FFFFFF" d="M420.163,136.433h-2.19l-3.969-12.01h3.057l2.025,6.715
				l1.991-6.715h3.074L420.163,136.433z"/>
			<path id="path489" inkscape:connector-curvature="0" fill="#FFFFFF" d="M437.623,132.958v2.565h-2.597v-2.565h-2.568v-2.595
				h2.568v-2.563h2.597v2.563h2.561v2.595H437.623z"/>
		</g>
		<rect id="rect4272" x="206.287" y="66.822" fill="#333333" width="45.703" height="58.614"/>
		<polyline id="polyline591" fill="#E7AB22" points="478.171,-146.37 437.694,-183.16 478.281,-183.16 		"/>
		<rect id="rect29" x="490.732" y="-185.678" fill="#E7AB22" width="8.628" height="3.449"/>
		<rect id="rect3317-2-1-3-6-5-4-6-6-7-2-7-5-1-6_26_" x="499.403" y="-190.783" fill="#333333" width="46.051" height="13.646"/>
		<text transform="matrix(1 0 0 1 513.4663 -181.9888)" fill="#FFFFFF" font-family="'ArialMT'" font-size="7.3687">ADC 31</text>
		<rect id="rect27" x="490.732" y="-172.006" fill="#E7AB22" width="8.628" height="3.453"/>
		<rect id="rect3317-2-1-3-6-5-4-6-6-7-2-7-5-1-6_27_" x="499.403" y="-177.101" fill="#333333" width="46.051" height="13.64"/>
		<text transform="matrix(1 0 0 1 513.4663 -168.3091)" fill="#FFFFFF" font-family="'ArialMT'" font-size="7.3687">ADC 30</text>
		<rect id="rect25" x="490.732" y="-158.334" fill="#E7AB22" width="8.628" height="3.451"/>
		<rect id="rect3317-2-1-3-6-5-4-6-6-7-2-7-5-1-6_28_" x="499.403" y="-163.426" fill="#333333" width="46.051" height="13.64"/>
		<text transform="matrix(1 0 0 1 511.8257 -154.6362)" fill="#FFFFFF" font-family="'ArialMT'" font-size="7.3687"> ADC 29</text>
		<rect id="rect23" x="490.732" y="-144.657" fill="#E7AB22" width="8.628" height="3.45"/>
		<rect id="rect3317-2-1-3-6-5-4-6-6-7-2-7-5-1-6_29_" x="499.403" y="-149.755" fill="#333333" width="46.051" height="13.642"/>
		<text transform="matrix(1 0 0 1 513.4663 -140.9639)" fill="#FFFFFF" font-family="'ArialMT'" font-size="7.3687">ADC 28</text>
		<rect id="rect21" x="490.732" y="-130.985" fill="#E7AB22" width="8.628" height="3.452"/>
		<rect id="rect3317-2-1-3-6-5-4-6-6-7-2-7-5-1-6_30_" x="499.403" y="-136.079" fill="#333333" width="46.051" height="13.64"/>
		<text transform="matrix(1 0 0 1 511.8257 -127.2998)" fill="#FFFFFF" font-family="'ArialMT'" font-size="7.3687"> ADC 27</text>
		<rect id="rect19" x="490.732" y="-117.309" fill="#E7AB22" width="8.628" height="3.447"/>
		<rect id="rect3317-2-1-3-6-5-4-6-6-7-2-7-5-1-6_31_" x="499.403" y="-122.405" fill="#333333" width="46.051" height="13.643"/>
		<text transform="matrix(1 0 0 1 513.4663 -113.6191)" fill="#FFFFFF" font-family="'ArialMT'" font-size="7.3687">ADC 26</text>
		<rect id="rect17" x="490.732" y="-103.637" fill="#E7AB22" width="8.628" height="3.45"/>
		<rect id="rect3317-2-1-3-6-5-4-6-6-7-2-7-5-1-6_32_" x="499.403" y="-108.732" fill="#333333" width="46.051" height="13.64"/>
		<text transform="matrix(1 0 0 1 511.8257 -99.9473)" fill="#FFFFFF" font-family="'ArialMT'" font-size="7.3687"> ADC 25</text>
		<rect id="rect33" x="490.732" y="-89.964" fill="#E7AB22" width="8.628" height="3.452"/>
		<rect id="rect3317-2-1-3-6-5-4-6-6-7-2-7-5-1-6_33_" x="499.403" y="-95.058" fill="#333333" width="46.051" height="13.64"/>
		<text transform="matrix(1 0 0 1 513.4663 -86.2749)" fill="#FFFFFF" font-family="'ArialMT'" font-size="7.3687">ADC 24</text>
		<rect id="rect35" x="490.732" y="-213.026" fill="#E7AB22" width="8.628" height="3.451"/>
		<rect id="rect3317-2-1-3-6-5-4-6-6-7-2-7-5-1-6_10_" x="499.403" y="-218.121" fill="#333333" width="46.051" height="13.639"/>
		<text transform="matrix(1 0 0 1 524.6226 -209.334)" fill="#FFFFFF" font-family="'ArialMT'" font-size="7.3687">+3.3  </text>
		<rect id="rect31" x="490.732" y="-199.345" fill="#E7AB22" width="8.628" height="3.445"/>
		<rect id="rect3317-2-1-3-6-5-4-6-6-7-2-7-5-1-6_25_" x="499.403" y="-204.449" fill="#333333" width="46.051" height="13.642"/>
		<g id="g413" transform="matrix(0.704,0,0,0.704,82.189437,57.292757)">
			
				<line id="line415" fill="none" stroke="#F1F1F2" stroke-width="1.1614" stroke-linecap="round" stroke-miterlimit="10" x1="644.188" y1="-365.894" x2="644.188" y2="-362.232"/>
			
				<line id="line417" fill="none" stroke="#F1F1F2" stroke-width="1.256" stroke-linecap="round" stroke-miterlimit="10" x1="639.123" y1="-361.87" x2="649.259" y2="-361.87"/>
			
				<line id="line419" fill="none" stroke="#F1F1F2" stroke-width="1.256" stroke-linecap="round" stroke-miterlimit="10" x1="641.11" y1="-360.05" x2="647.273" y2="-360.05"/>
			
				<line id="line421" fill="none" stroke="#F1F1F2" stroke-width="1.256" stroke-linecap="round" stroke-miterlimit="10" x1="643.45" y1="-358.31" x2="644.931" y2="-358.31"/>
		</g>
		<rect id="rect155" x="490.732" y="-70.319" fill="#E7AB22" width="8.628" height="3.451"/>
		<rect id="rect3317-2-1-3-6-5-4-6-6-7-2-7-5-1-6_34_" x="499.313" y="-75.414" fill="#333333" width="46.055" height="13.641"/>
		<text transform="matrix(1 0 0 1 524.6196 -66.624)" fill="#FFFFFF" font-family="'ArialMT'" font-size="7.3687">+3.3  </text>
		<rect id="rect151" x="490.732" y="-56.67" fill="#E7AB22" width="8.628" height="3.451"/>
		<rect id="rect3317-2-1-3-6-5-4-6-6-7-2-7-5-1-6_35_" x="499.313" y="-61.765" fill="#333333" width="46.055" height="13.641"/>
		<g id="g435" transform="matrix(0.704,0,0,0.704,82.792077,57.292757)">
			
				<line id="line437" fill="none" stroke="#F1F1F2" stroke-width="1.1614" stroke-linecap="round" stroke-miterlimit="10" x1="643.332" y1="-163.22" x2="643.332" y2="-159.561"/>
			
				<line id="line439" fill="none" stroke="#F1F1F2" stroke-width="1.256" stroke-linecap="round" stroke-miterlimit="10" x1="638.273" y1="-159.189" x2="648.403" y2="-159.189"/>
			
				<line id="line441" fill="none" stroke="#F1F1F2" stroke-width="1.256" stroke-linecap="round" stroke-miterlimit="10" x1="640.254" y1="-157.371" x2="646.414" y2="-157.371"/>
			
				<line id="line443" fill="none" stroke="#F1F1F2" stroke-width="1.256" stroke-linecap="round" stroke-miterlimit="10" x1="642.594" y1="-155.635" x2="644.075" y2="-155.635"/>
		</g>
		<rect id="rect149" x="490.732" y="-43.02" fill="#E7AB22" width="8.628" height="3.451"/>
		<rect id="rect3317-2-1-3-6-5-4-6-6-7-2-7-5-1-6_36_" x="499.313" y="-48.114" fill="#333333" width="46.055" height="13.639"/>
		<text transform="matrix(1 0 0 1 511.017 -39.3286)" fill="#FFFFFF" font-family="'ArialMT'" font-size="7.3687">PWM 23</text>
		<rect id="rect147" x="490.732" y="-29.37" fill="#E7AB22" width="8.628" height="3.455"/>
		<rect id="rect3317-2-1-3-6-5-4-6-6-7-2-7-5-1-6_37_" x="499.313" y="-34.47" fill="#333333" width="46.055" height="13.645"/>
		<text transform="matrix(1 0 0 1 511.017 -25.6811)" fill="#FFFFFF" font-family="'ArialMT'" font-size="7.3687">PWM 22</text>
		<rect id="rect145" x="490.732" y="-15.718" fill="#E7AB22" width="8.628" height="3.453"/>
		<rect id="rect3317-2-1-3-6-5-4-6-6-7-2-7-5-1-6_38_" x="499.313" y="-20.811" fill="#333333" width="46.055" height="13.639"/>
		<text transform="matrix(1 0 0 1 511.017 -12.0337)" fill="#FFFFFF" font-family="'ArialMT'" font-size="7.3687">PWM 21</text>
		<rect id="rect143" x="490.732" y="-2.064" fill="#E7AB22" width="8.628" height="3.451"/>
		<rect id="rect3317-2-1-3-6-5-4-6-6-7-2-7-5-1-6_39_" x="499.313" y="-7.166" fill="#333333" width="46.055" height="13.64"/>
		<text transform="matrix(1 0 0 1 511.017 1.6221)" fill="#FFFFFF" font-family="'ArialMT'" font-size="7.3687">PWM 20</text>
		<rect id="rect141" x="490.732" y="11.582" fill="#E7AB22" width="8.628" height="3.448"/>
		<rect id="rect3317-2-1-3-6-5-4-6-6-7-2-7-5-1-6_40_" x="499.313" y="6.487" fill="#333333" width="46.055" height="13.639"/>
		<text transform="matrix(1 0 0 1 511.017 15.2705)" fill="#FFFFFF" font-family="'ArialMT'" font-size="7.3687">PWM 19</text>
		<rect id="rect139" x="490.732" y="25.236" fill="#E7AB22" width="8.628" height="3.456"/>
		<rect id="rect3317-2-1-3-6-5-4-6-6-7-2-7-5-1-6_41_" x="499.313" y="20.138" fill="#333333" width="46.055" height="13.639"/>
		<text transform="matrix(1 0 0 1 511.017 28.9263)" fill="#FFFFFF" font-family="'ArialMT'" font-size="7.3687">PWM 18</text>
		<rect id="rect137" x="490.732" y="38.884" fill="#E7AB22" width="8.628" height="3.45"/>
		<rect id="rect3317-2-1-3-6-5-4-6-6-7-2-7-5-1-6_42_" x="499.313" y="33.789" fill="#333333" width="46.055" height="13.639"/>
		<text transform="matrix(1 0 0 1 531.0698 42.5747)" fill="#FFFFFF" font-family="'ArialMT'" font-size="7.3687">17</text>
		<rect id="rect153" x="490.732" y="52.536" fill="#E7AB22" width="8.628" height="3.449"/>
		<rect id="rect3317-2-1-3-6-5-4-6-6-7-2-7-5-1-6_43_" x="499.313" y="47.435" fill="#333333" width="46.055" height="13.643"/>
		<text transform="matrix(1 0 0 1 531.0698 56.2227)" fill="#FFFFFF" font-family="'ArialMT'" font-size="7.3687">16</text>
		<rect id="rect3317-2-1-3-6-5-4-6-6-7-2-7-5-1-6_20_" x="206.287" y="47.435" fill="#333333" width="45.699" height="13.638"/>
		<g id="g343" transform="matrix(0.704,0,0,0.704,82.024007,57.456794)">
			<text transform="matrix(1.4205 0 0 1.4205 184.9626 -1.753)" fill="#FFFFFF" font-family="'ArialMT'" font-size="7.3698">+3.3 </text>
		</g>
		<rect id="rect3317-2-1-3-6-5-4-6-6-7-2-7-5-1-6_11_" x="206.287" y="-75.414" fill="#333333" width="45.699" height="13.639"/>
		<rect id="rect3317-2-1-3-6-5-4-6-6-7-2-7-5-1-6_12_" x="206.287" y="-61.765" fill="#333333" width="45.699" height="13.636"/>
		<rect id="rect3317-2-1-3-6-5-4-6-6-7-2-7-5-1-6_13_" x="206.287" y="-48.111" fill="#333333" width="45.699" height="13.635"/>
		<rect id="rect179" x="252.078" y="52.531" fill="#E7AB22" width="8.885" height="3.453"/>
		<rect id="rect181" x="252.078" y="-70.322" fill="#E7AB22" width="8.885" height="3.451"/>
		<rect id="rect177" x="252.078" y="-56.67" fill="#E7AB22" width="8.885" height="3.449"/>
		<rect id="rect175" x="252.078" y="-43.018" fill="#E7AB22" width="8.885" height="3.447"/>
		<rect id="rect173" x="252.078" y="-29.37" fill="#E7AB22" width="8.885" height="3.451"/>
		<rect id="rect3317-2-1-3-6-5-4-6-6-7-2-7-5-1-6_14_" x="206.287" y="-34.473" fill="#333333" width="45.699" height="13.647"/>
		<text transform="matrix(1 0 0 1 212.2358 -25.6811)" fill="#FFFFFF" font-family="'ArialMT'" font-size="7.3687">11 MISO 1</text>
		<rect id="rect171" x="252.078" y="-15.72" fill="#E7AB22" width="8.885" height="3.455"/>
		<rect id="rect3317-2-1-3-6-5-4-6-6-7-2-7-5-1-6_15_" x="206.287" y="-20.811" fill="#333333" width="45.701" height="13.638"/>
		<text transform="matrix(1 0 0 1 212.2358 -12.0248)" fill="#FFFFFF" font-family="'ArialMT'" font-size="7.3687">12 SCK 1</text>
		<rect id="rect169" x="252.078" y="-2.068" fill="#E7AB22" width="8.885" height="3.449"/>
		<rect id="rect3317-2-1-3-6-5-4-6-6-7-2-7-5-1-6_16_" x="206.287" y="-7.168" fill="#333333" width="45.699" height="13.642"/>
		<text transform="matrix(1 0 0 1 212.2358 1.6221)" fill="#FFFFFF" font-family="'ArialMT'" font-size="7.3687">13</text>
		<rect id="rect167" x="252.078" y="11.582" fill="#E7AB22" width="8.885" height="3.448"/>
		<rect id="rect3317-2-1-3-6-5-4-6-6-7-2-7-5-1-6_17_" x="206.287" y="6.487" fill="#333333" width="45.699" height="13.638"/>
		<text transform="matrix(1 0 0 1 212.2358 15.2706)" fill="#FFFFFF" font-family="'ArialMT'" font-size="7.3687">14</text>
		<rect id="rect165" x="252.078" y="25.232" fill="#E7AB22" width="8.885" height="3.451"/>
		<rect id="rect3317-2-1-3-6-5-4-6-6-7-2-7-5-1-6_18_" x="206.287" y="20.133" fill="#333333" width="45.699" height="13.64"/>
		<text transform="matrix(1 0 0 1 212.2358 28.918)" fill="#FFFFFF" font-family="'ArialMT'" font-size="7.3687">15</text>
		<rect id="rect163" x="252.078" y="38.882" fill="#E7AB22" width="8.885" height="3.448"/>
		<rect id="rect3317-2-1-3-6-5-4-6-6-7-2-7-5-1-6_19_" x="206.287" y="33.789" fill="#333333" width="45.699" height="13.635"/>
		<g id="g579" transform="matrix(0.704,0,0,0.704,82.014857,57.513115)">
			
				<line id="line581" fill="none" stroke="#F1F1F2" stroke-width="1.1614" stroke-linecap="round" stroke-miterlimit="10" x1="190.208" y1="-27.813" x2="190.208" y2="-24.15"/>
			
				<line id="line583" fill="none" stroke="#F1F1F2" stroke-width="1.256" stroke-linecap="round" stroke-miterlimit="10" x1="185.142" y1="-23.77" x2="195.275" y2="-23.77"/>
			
				<line id="line585" fill="none" stroke="#F1F1F2" stroke-width="1.256" stroke-linecap="round" stroke-miterlimit="10" x1="187.13" y1="-21.956" x2="193.289" y2="-21.956"/>
			
				<line id="line587" fill="none" stroke="#F1F1F2" stroke-width="1.256" stroke-linecap="round" stroke-miterlimit="10" x1="189.463" y1="-20.222" x2="190.95" y2="-20.222"/>
		</g>
		<rect x="252.078" y="86.832" fill="#E7AB22" width="9.01" height="3.454"/>
		<rect id="rect3317-2-1-3-6-5-4-6-6-7-2-7-5-1-6_22_" x="206.287" y="81.741" fill="#333333" width="45.701" height="13.639"/>
		<g id="g503" transform="matrix(0.704,0,0,0.704,82.074337,57.456724)">
			<text transform="matrix(1.4205 0 0 1.4205 185.1367 46.9858)" fill="#FFFFFF" font-family="'ArialMT'" font-size="7.3698">SCL  </text>
		</g>
		<rect x="252.078" y="71.852" fill="#E7AB22" width="9.01" height="3.459"/>
		<rect id="rect3317-2-1-3-6-5-4-6-6-7-2-7-5-1-6_21_" x="206.287" y="66.762" fill="#333333" width="45.699" height="13.638"/>
		<g id="g509" transform="matrix(0.704,0,0,0.704,82.013867,57.456724)">
			<text transform="matrix(1.4205 0 0 1.4205 184.7287 25.7019)" fill="#FFFFFF" font-family="'ArialMT'" font-size="7.3698">SDA </text>
		</g>
		<rect x="252.078" y="116.797" fill="#E7AB22" width="9.01" height="3.457"/>
		<rect id="rect3317-2-1-3-6-5-4-6-6-7-2-7-5-1-6_24_" x="206.287" y="111.707" fill="#333333" width="45.701" height="13.639"/>
		<g id="g515" transform="matrix(0.704,0,0,0.704,81.912137,57.456724)">
			<text transform="matrix(1.4205 0 0 1.4205 184.876 89.5385)" fill="#FFFFFF" font-family="'ArialMT'" font-size="7.3698">+5.0</text>
		</g>
		<rect x="252.078" y="101.816" fill="#E7AB22" width="9.01" height="3.463"/>
		<rect id="rect3317-2-1-3-6-5-4-6-6-7-2-7-5-1-6_23_" x="206.286" y="96.722" fill="#333333" width="45.701" height="13.639"/>
		<g id="g521" transform="matrix(0.704,0,0,0.704,82.779887,57.513115)">
			
				<line id="line523" fill="none" stroke="#F1F1F2" stroke-width="1.1614" stroke-linecap="round" stroke-miterlimit="10" x1="189.368" y1="61.594" x2="189.368" y2="65.247"/>
			
				<line id="line525" fill="none" stroke="#F1F1F2" stroke-width="1.256" stroke-linecap="round" stroke-miterlimit="10" x1="184.3" y1="65.627" x2="194.429" y2="65.627"/>
			
				<line id="line527" fill="none" stroke="#F1F1F2" stroke-width="1.256" stroke-linecap="round" stroke-miterlimit="10" x1="186.29" y1="67.447" x2="192.448" y2="67.447"/>
			
				<line id="line529" fill="none" stroke="#F1F1F2" stroke-width="1.256" stroke-linecap="round" stroke-miterlimit="10" x1="188.628" y1="69.184" x2="190.109" y2="69.184"/>
		</g>
		<rect id="rect205" x="252.078" y="-213.026" fill="#E7AB22" width="8.885" height="3.451"/>
		<rect id="rect3317-2-1-3-6-5-4-6-6-7-2-7-5-1-6_9_" x="206.286" y="-218.121" fill="#333333" width="45.701" height="13.639"/>
		<rect id="rect201" x="252.078" y="-199.347" fill="#E7AB22" width="8.885" height="3.447"/>
		<rect id="rect3317-2-1-3-6-5-4-6-6-7-2-7-5-1-6_8_" x="206.286" y="-204.449" fill="#333333" width="45.701" height="13.64"/>
		<rect id="rect199" x="252.078" y="-185.678" fill="#E7AB22" width="8.885" height="3.451"/>
		<rect id="rect3317-2-1-3-6-5-4-6-6-7-2-7-5-1-6_7_" x="206.286" y="-190.781" fill="#333333" width="45.701" height="13.644"/>
		<rect id="rect197" x="252.078" y="-172.006" fill="#E7AB22" width="8.885" height="3.453"/>
		<rect id="rect3317-2-1-3-6-5-4-6-6-7-2-7-5-1-6_6_" x="206.286" y="-177.098" fill="#333333" width="45.701" height="13.638"/>
		<rect id="rect193" x="252.078" y="-144.651" fill="#E7AB22" width="8.885" height="3.444"/>
		<rect id="rect3317-2-1-3-6-5-4-6-6-7-2-7-5-1-6_4_" x="206.286" y="-149.751" fill="#333333" width="45.705" height="13.638"/>
		<rect id="rect191" x="252.078" y="-130.985" fill="#E7AB22" width="8.885" height="3.452"/>
		<rect id="rect3317-2-1-3-6-5-4-6-6-7-2-7-5-1-6_3_" x="206.286" y="-136.079" fill="#333333" width="45.701" height="13.636"/>
		<rect id="rect189" x="252.078" y="-117.308" fill="#E7AB22" width="8.885" height="3.447"/>
		<rect id="rect3317-2-1-3-6-5-4-6-6-7-2-7-5-1-6_2_" x="206.286" y="-122.405" fill="#333333" width="45.701" height="13.643"/>
		<rect id="rect203" x="252.078" y="-89.961" fill="#E7AB22" width="8.885" height="3.449"/>
		<rect id="rect3317-2-1-3-6-5-4-6-6-7-2-7-5-1-6" x="206.286" y="-95.057" fill="#333333" width="45.701" height="13.64"/>
		<rect id="rect187" x="252.078" y="-103.635" fill="#E7AB22" width="8.885" height="3.45"/>
		<rect id="rect3317-2-1-3-6-5-4-6-6-7-2-7-5-1-6_1_" x="206.286" y="-108.73" fill="#333333" width="45.701" height="13.64"/>
		<rect id="rect195" x="252.078" y="-158.332" fill="#E7AB22" width="8.885" height="3.453"/>
		<rect id="rect3317-2-1-3-6-5-4-6-6-7-2-7-5-1-6_5_" x="206.286" y="-163.424" fill="#333333" width="45.701" height="13.636"/>
		<g>
			<text transform="matrix(1 0 0 1 212.2377 -66.6336)" fill="#FFFFFF" font-family="'ArialMT'" font-size="7.3687">8 </text>
			<text transform="matrix(1 0 0 1 212.2377 -52.9764)" fill="#FFFFFF" font-family="'ArialMT'" font-size="7.3687">9 </text>
			<text transform="matrix(1 0 0 1 212.2377 -39.3285)" fill="#FFFFFF" font-family="'ArialMT'" font-size="7.3687">10 MOSI 1 </text>
			<text transform="matrix(1 0 0 1 212.4105 -209.3416)" fill="#FFFFFF" font-family="'ArialMT'" font-size="7.3687">0 RX</text>
			<text transform="matrix(1 0 0 1 212.4105 -195.6698)" fill="#FFFFFF" font-family="'ArialMT'" font-size="7.3687">1 TX</text>
			<text transform="matrix(1 0 0 1 212.4105 -181.9813)" fill="#FFFFFF" font-family="'ArialMT'" font-size="7.3687">2 MOSI 0</text>
			<text transform="matrix(1 0 0 1 212.4105 -168.3167)" fill="#FFFFFF" font-family="'ArialMT'" font-size="7.3687">3 MISO 0</text>
			<text transform="matrix(1 0 0 1 212.4105 -140.9637)" fill="#FFFFFF" font-family="'ArialMT'" font-size="7.3687">5</text>
			<text transform="matrix(1 0 0 1 212.4105 -127.2918)" fill="#FFFFFF" font-family="'ArialMT'" font-size="7.3687">6</text>
			<text transform="matrix(1 0 0 1 212.4105 -113.619)" fill="#FFFFFF" font-family="'ArialMT'" font-size="7.3687">7</text>
			<g id="g337" transform="matrix(0.704,0,0,0.704,82.146127,57.059739)">
				<text transform="matrix(1.4205 0 0 1.4205 185.0347 -203.5891)" fill="#FFFFFF" font-family="'ArialMT'" font-size="7.3698">+3.3</text>
			</g>
			<g id="g349" transform="matrix(0.704,0,0,0.704,82.059577,56.62326)">
				
					<line id="line351" fill="none" stroke="#F1F1F2" stroke-width="1.1614" stroke-linecap="round" stroke-miterlimit="10" x1="190.391" y1="-228.985" x2="190.391" y2="-225.328"/>
				
					<line id="line353" fill="none" stroke="#F1F1F2" stroke-width="1.256" stroke-linecap="round" stroke-miterlimit="10" x1="185.328" y1="-224.951" x2="195.455" y2="-224.951"/>
				
					<line id="line355" fill="none" stroke="#F1F1F2" stroke-width="1.256" stroke-linecap="round" stroke-miterlimit="10" x1="187.316" y1="-223.132" x2="193.471" y2="-223.132"/>
				
					<line id="line357" fill="none" stroke="#F1F1F2" stroke-width="1.256" stroke-linecap="round" stroke-miterlimit="10" x1="189.651" y1="-221.397" x2="191.135" y2="-221.397"/>
			</g>
			<text transform="matrix(1.0233 0 0 1 212.4105 -154.6419)" fill="#FFFFFF" font-family="'ArialMT'" font-size="7.3687">4 SCK   </text>
		</g>
		<text transform="matrix(1.0233 0 0 1 234.9144 -154.4866)" fill="#FFFFFF" font-family="'ArialMT'" font-size="7.3687">0</text>
	</g>
	<circle fill="#F9F5D2" cx="373.904" cy="-5.274" r="6.656"/>
</g>
</svg>
