<?xml version="1.0" encoding="utf-8"?>
<!-- Generator: Adobe Illustrator 16.0.0, SVG Export Plug-In . SVG Version: 6.00 Build 0)  -->
<!DOCTYPE svg PUBLIC "-//W3C//DTD SVG 1.1//EN" "http://www.w3.org/Graphics/SVG/1.1/DTD/svg11.dtd">
<svg version="1.1" id="Layer_1" xmlns="http://www.w3.org/2000/svg" xmlns:xlink="http://www.w3.org/1999/xlink" x="0px" y="0px"
	 width="80px" height="20px" viewBox="0 0 80 20" enable-background="new 0 0 80 20" xml:space="preserve">
<g>
	<g>
		<polygon fill="#FFFFFF" points="9.953,19.906 0.978,19.906 0,18.93 0,0 1.954,0 1.954,17.952 8.976,17.952 8.976,8.976 
			10.931,8.976 10.931,18.93 		"/>
	</g>
	<g>
		<polygon fill="#FFFFFF" points="18.929,19.906 9.953,19.906 8.976,18.93 8.976,8.976 10.931,8.976 10.931,17.952 17.953,17.952 
			17.953,0 19.907,0 19.907,18.93 		"/>
	</g>
	<g>
		<polygon fill="#FFFFFF" points="36.123,10.931 26.169,10.931 25.193,9.953 25.193,0.978 26.169,0 45.1,0 45.1,1.954 27.147,1.954 
			27.147,8.976 36.123,8.976 		"/>
	</g>
	<g>
		<polygon fill="#FFFFFF" points="45.1,19.906 26.169,19.906 25.193,18.93 25.193,9.953 26.169,8.976 36.123,8.976 36.123,10.931 
			27.147,10.931 27.147,17.952 45.1,17.952 		"/>
	</g>
	<g>
		<rect x="50.937" fill="#FFFFFF" width="1.955" height="19.906"/>
	</g>
	<g>
		<path fill="#FFFFFF" d="M77.149,19.906H59.196l-0.978-0.977V0.978L59.196,0h17.953l0.978,0.978V18.93L77.149,19.906z
			 M60.174,17.952h15.998V1.954H60.174V17.952z"/>
	</g>
</g>
</svg>
