<?xml version="1.0" encoding="utf-8"?>
<!-- Generator: Adobe Illustrator 15.0.2, SVG Export Plug-In . SVG Version: 6.00 Build 0)  -->
<!DOCTYPE svg PUBLIC "-//W3C//DTD SVG 1.1//EN" "http://www.w3.org/Graphics/SVG/1.1/DTD/svg11.dtd">
<svg version="1.1" id="Layer_2" xmlns="http://www.w3.org/2000/svg" xmlns:xlink="http://www.w3.org/1999/xlink" x="0px" y="0px"
	 width="245.5px" height="245.007px" viewBox="0 0 245.5 245.007" enable-background="new 0 0 245.5 245.007" xml:space="preserve">
<g>
	<g>
		<path fill="#FFFFFF" d="M123.208-0.008L0.7,122.499l122.508,122.508l122.504-122.508L123.208-0.008z M123.207,175.25
			c-34.136,0-64.133-21.022-81.293-52.75c17.16-31.727,47.157-52.75,81.293-52.75c34.136,0,64.133,21.023,81.293,52.75
			C187.34,154.227,157.343,175.25,123.207,175.25z"/>
	</g>
</g>
<g>
	<g>
		<path fill="#FFFFFF" d="M123.207,92.041c-16.822,0-30.459,13.637-30.459,30.459c0,16.821,13.637,30.458,30.459,30.458
			s30.459-13.638,30.459-30.458C153.666,105.678,140.027,92.041,123.207,92.041z M134.311,123.31
			c-7.438,0-13.465-6.029-13.465-13.466c0-7.437,6.029-13.466,13.465-13.466c7.438,0,13.467,6.029,13.467,13.466
			C147.777,117.281,141.748,123.31,134.311,123.31z"/>
	</g>
</g>
</svg>
