<?xml version="1.0" encoding="utf-8"?>
<!-- Generator: Adobe Illustrator 16.0.0, SVG Export Plug-In . SVG Version: 6.00 Build 0)  -->
<!DOCTYPE svg PUBLIC "-//W3C//DTD SVG 1.1//EN" "http://www.w3.org/Graphics/SVG/1.1/DTD/svg11.dtd">
<svg version="1.1" id="Layer_1" xmlns="http://www.w3.org/2000/svg" xmlns:xlink="http://www.w3.org/1999/xlink" x="0px" y="0px"
	 width="32px" height="32px" viewBox="0 0 32 32" enable-background="new 0 0 32 32" xml:space="preserve">
<g>
	<g>
		<path fill="#FFFFFF" d="M16,0L0,16l16,16l16-16L16,0z M16,22.889c-4.458,0-8.376-2.744-10.617-6.889
			C7.624,11.856,11.542,9.11,16,9.11c4.458,0,8.376,2.746,10.618,6.89C24.376,20.145,20.458,22.889,16,22.889z"/>
	</g>
</g>
<g>
	<g>
		<path fill="#FFFFFF" d="M16,12.021c-2.197,0-3.979,1.781-3.979,3.979s1.781,3.978,3.979,3.978c2.198,0,3.978-1.78,3.978-3.978
			S18.198,12.021,16,12.021z M17.451,16.105c-0.973,0-1.759-0.787-1.759-1.758c0-0.972,0.787-1.76,1.759-1.76
			c0.971,0,1.758,0.788,1.758,1.76C19.208,15.318,18.421,16.105,17.451,16.105z"/>
	</g>
</g>
</svg>
